<?xml version="1.0" standalone="no"?>
<!DOCTYPE svg PUBLIC "-//W3C//DTD SVG 1.1//EN" "http://www.w3.org/Graphics/SVG/1.1/DTD/svg11.dtd" >
<svg xmlns="http://www.w3.org/2000/svg" xmlns:xlink="http://www.w3.org/1999/xlink" version="1.1">
<metadata></metadata>
<defs>
<font id="sanchezregular" horiz-adv-x="1255" >
<font-face units-per-em="2048" ascent="1638" descent="-410" />
<missing-glyph horiz-adv-x="641" />
<glyph unicode="&#xfb00;" horiz-adv-x="1542" d="M78 895v88q0 25 26 25h117v127q0 170 87 259t243 89q115 0 207 -82q20 -18 6 -35l-49 -63q-18 -18 -35 -5q-49 39 -123 39t-120 -52t-46 -152v-125h580v127q0 170 87 259t242 89q115 0 207 -82q12 -10 12.5 -19.5t-6.5 -15.5l-49 -63q-18 -18 -34 -5q-49 39 -123 39 t-120 -52t-46 -152v-125h262q27 0 27 -25v-88q0 -25 -27 -25h-262v-733h180q25 0 25 -24v-88q0 -25 -25 -25h-463q-27 0 -27 25v88q0 25 27 24h113v733h-580v-733h180q25 0 25 -24v-88q0 -25 -25 -25h-462q-27 0 -27 25v88q0 25 27 24h112v733h-117q-27 0 -26 25z" />
<glyph unicode="&#xfb01;" horiz-adv-x="1361" d="M78 895v88q0 25 26 25h117v127q0 170 87 259t243 89q115 0 207 -82q20 -18 6 -35l-49 -63q-18 -18 -35 -5q-49 39 -123 39t-120 -52t-46 -152v-125h733q25 0 25 -25v-846h108q27 0 27 -24v-88q0 -25 -27 -25h-391q-27 0 -26 25v88q0 25 26 24h113v733h-588v-733h180 q25 0 25 -24v-88q0 -25 -25 -25h-462q-27 0 -27 25v88q0 25 27 24h112v733h-117q-27 0 -26 25zM946 1229q0 47 34 82t81 35t81 -35t34 -82t-34 -80t-81 -33t-81 33t-34 80z" />
<glyph unicode="&#xfb02;" horiz-adv-x="1392" d="M78 895v88q0 25 26 25h117v127q0 170 87 259t243 89q115 0 207 -82q20 -18 6 -35l-49 -63q-18 -18 -35 -5q-49 39 -123 39t-120 -52t-46 -152v-125h262q27 0 27 -25v-88q0 -25 -27 -25h-262v-733h180q25 0 25 -24v-88q0 -25 -25 -25h-462q-27 0 -27 25v88q0 25 27 24h112 v733h-117q-27 0 -26 25zM870 25v88q0 25 27 24h113v1196h-113q-27 0 -27 25v88q0 25 27 24h227q55 0 56 -51v-1282h108q27 0 27 -24v-88q0 -25 -27 -25h-391q-27 0 -27 25z" />
<glyph horiz-adv-x="0" />
<glyph unicode="&#xd;" horiz-adv-x="681" />
<glyph unicode=" "  horiz-adv-x="641" />
<glyph unicode="&#x09;" horiz-adv-x="641" />
<glyph unicode="&#xa0;" horiz-adv-x="641" />
<glyph unicode="!" horiz-adv-x="372" d="M78 8q0 45 31.5 77t77.5 32t77 -32t31 -77t-31 -76.5t-77 -31.5t-77.5 31.5t-31.5 76.5zM100 328v1204q0 25 25 24h123q25 0 24 -24v-1204q1 -25 -24 -25h-123q-25 0 -25 25z" />
<glyph unicode="&#x22;" horiz-adv-x="569" d="M78 1509q0 27 28 27h89q31 0 26 -27l-10 -333q0 -27 -27 -27h-69q-27 0 -27 27zM348 1509q0 27 27 27h90q31 0 27 -27l-11 -333q1 -27 -26 -27h-70q-27 0 -27 27z" />
<glyph unicode="#" horiz-adv-x="1253" d="M78 254v76q0 25 26 24h199l74 258h-162q-25 0 -25 27v74q0 27 25 26h199l65 224q6 27 33 26h102q23 0 17 -26l-66 -224h269l65 224q6 27 33 26h100q27 0 17 -26l-64 -224h164q27 0 27 -26v-74q0 -27 -27 -27h-201l-76 -258h166q25 0 25 -24v-76q0 -25 -25 -25h-200 l-64 -219q-6 -25 -31 -24h-100q-29 0 -18 24l61 219h-266l-64 -219q-6 -25 -32 -24h-101q-25 0 -18 24l63 219h-164q-27 0 -26 25zM455 354h266l76 258h-269z" />
<glyph unicode="$" horiz-adv-x="1323" d="M78 88v385q0 25 26 25h129q25 0 25 -25v-12q6 -57 96 -168q47 -57 138.5 -99t226.5 -42t224 65.5t89 181.5q0 72 -50 123t-130 80t-177 52.5t-194.5 54t-177.5 72.5t-130 120t-50 184q0 166 123 278t334 120v141q0 25 24 25h111q25 0 24 -25v-162q176 -25 269 -141l-4 80 q0 25 26 24h115q25 0 24 -24v-371q0 -25 -24 -24h-129q-25 0 -25 24v27q-4 78 -82 160q-41 43 -115.5 70.5t-191.5 27.5t-200 -64.5t-83 -153.5t51.5 -143.5t133.5 -84t180 -55.5t196.5 -55.5t180.5 -69.5t133 -113.5t51 -176.5q0 -174 -119.5 -288.5t-361.5 -122.5v-140 q0 -24 -25 -24h-110q-25 0 -25 24v154q-137 18 -226 83t-134 140h-4l4 -137q2 -25 -25 -25h-115q-27 0 -26 25z" />
<glyph unicode="%" horiz-adv-x="1542" d="M78 1109q0 167 81 270.5t217 103.5t215 -102.5t79 -270.5t-78 -271.5t-217 -103.5t-218 103.5t-79 270.5zM201 1110q0 -125 46 -193.5t128 -68.5t128 68.5t46 193.5t-45 192.5t-129 67.5t-129 -67.5t-45 -192.5zM422 -135q0 4 2 8l498 1659q6 25 32 24h121q20 0 21 -16 q0 -4 -2 -8l-498 -1659q-6 -25 -31 -25h-123q-20 0 -20 17zM872 360.5q0 167.5 80 270t216.5 102.5t216 -102.5t79.5 -270t-77.5 -271t-217 -103.5t-218.5 103.5t-79 271zM995 360.5q0 -124.5 46 -193.5t128 -69t127 69t45 193.5t-45 192.5t-128 68t-128 -68t-45 -192.5z " />
<glyph unicode="&#x26;" horiz-adv-x="1380" d="M76 399q0 190 129 299q100 84 221 133q-139 162 -139 318t97 245t240.5 89t243 -82t99.5 -229.5t-85 -233.5t-229 -158l273 -387q53 109 53 307q0 25 27 25h270q25 0 24 -25v-75q0 -25 -24 -25h-152q-8 -184 -100 -344l82 -115h129q27 0 27 -24v-92q0 -25 -27 -25h-166 q-43 0 -98 76l-43 61q-145 -152 -373.5 -151.5t-353.5 126.5t-125 287zM258 403q0 -121 88 -194.5t215 -73.5q176 0 279 123l-324 453q-180 -78 -233 -187q-25 -55 -25 -121zM451 1135.5q0 -97.5 120 -244.5q183 80 220 166q20 43 20 108.5t-46 117.5t-129 52t-134 -51 t-51 -148.5z" />
<glyph unicode="'" horiz-adv-x="301" d="M78 1509q0 27 28 27h89q27 0 26 -27l-10 -333q0 -27 -27 -27h-69q-27 0 -27 27z" />
<glyph unicode="(" horiz-adv-x="843" d="M78 719q0 211 59.5 378t155.5 267q195 203 444 203q27 0 27 -27v-104q0 -27 -27 -27q-174 0 -325 -168q-74 -80 -119 -218t-45 -311t46 -311.5t120 -216.5q150 -162 323 -161q27 0 27 -27v-105q0 -27 -27 -26q-248 0 -444 205q-96 100 -155.5 269t-59.5 380z" />
<glyph unicode=")" horiz-adv-x="843" d="M78 -6q0 29 28 29q176 0 324 159q74 80 120 217.5t46 310.5t-45 311t-119 220q-152 166 -326 166q-29 0 -28 27v104q0 27 28 27q246 0 443 -201q98 -100 156.5 -268t58.5 -379t-58.5 -380t-156.5 -269q-197 -205 -443 -205q-28 -1 -28 28v103z" />
<glyph unicode="*" horiz-adv-x="845" d="M78 1167v70q0 12 8 20.5t20 6.5l234 -29l-186 147q-23 18 0 39l49 49q23 18 39 0l145 -182l-27 232q-2 10 6.5 18t20.5 8h70q12 0 20 -7t6 -19l-22 -234l141 184q20 23 39 0l49 -47q23 -23 -2 -41l-182 -149l231 33q12 2 20.5 -6.5t8.5 -20.5v-70q0 -29 -29 -28l-227 22 l180 -139q18 -16 0 -39l-49 -49q-18 -23 -39 0l-145 178l26 -227q2 -12 -6 -19.5t-20 -7.5h-70q-12 0 -20.5 8.5t-6.5 18.5l23 231l-139 -182q-20 -23 -41 -2l-47 49q-23 23 0 41l186 141l-236 -24q-12 -2 -20 6t-8 20z" />
<glyph unicode="+" horiz-adv-x="821" d="M78 469v104q0 27 28 27h224v225q0 25 24 25h119q25 0 25 -25v-225h217q27 0 26 -27v-104q0 -27 -26 -27h-217v-219q0 -26 -25 -26h-119q-25 0 -24 26v219h-224q-29 0 -28 27z" />
<glyph unicode="," horiz-adv-x="325" d="M57 79q0 42 29 69.5t76 27.5t76.5 -39t29.5 -132t-45 -146.5t-117 -53.5q-14 1 -14 11v34q0 12 23.5 12.5t49 28t25.5 80.5l-4 25q-12 -10 -43.5 -10t-58.5 25.5t-27 67.5z" />
<glyph unicode="-" horiz-adv-x="847" d="M78 481v105q0 27 28 26h637q27 0 27 -26v-105q0 -26 -27 -26h-637q-29 0 -28 26z" />
<glyph unicode="." horiz-adv-x="309" d="M57 82q0 41 29 68.5t70 27.5t68.5 -27.5t27.5 -68.5t-27.5 -68.5t-68.5 -27.5t-70 27.5t-29 68.5z" />
<glyph unicode="/" horiz-adv-x="829" d="M78 -135q0 4 2 8l495 1659q10 25 35 24h121q18 0 19 -12q0 -6 -2 -12l-496 -1659q-6 -25 -31 -25h-123q-20 0 -20 17z" />
<glyph unicode="0" horiz-adv-x="1339" d="M78 735q0 336 159.5 542t432 206t432.5 -206t160 -541t-157 -542.5t-435.5 -207.5t-435 206.5t-156.5 542.5zM268 734.5q0 -275.5 106.5 -429t295 -153.5t295 152.5t106.5 429t-107.5 432t-294 155.5t-294 -155.5t-107.5 -431z" />
<glyph unicode="1" horiz-adv-x="1040" d="M80 1181.5q0 8.5 12 18.5l357 256q20 14 36 14h129q25 0 25 -24v-1292h299q25 0 25 -25v-104q0 -25 -25 -25h-809q-27 0 -27 25v104q0 25 27 25h332v1124l-283 -203q-20 -14 -35 6l-57 84q-6 8 -6 16.5z" />
<glyph unicode="2" horiz-adv-x="1232" d="M78 25v63q0 123 48 221.5t125 160.5t169 113.5t184 95.5t170 91q172 106 172 264q0 119 -91 202t-246.5 83t-244 -84t-88.5 -213q0 -25 -26 -25h-133q-25 0 -25 25q0 190 134 325.5t383 135.5t385 -128t136 -308q0 -123 -61 -221.5t-153.5 -157t-201 -116.5 t-202.5 -106.5t-160.5 -124t-72.5 -167.5h696v147q0 25 24 25h129q27 0 27 -25v-276q0 -25 -27 -25h-1024q-27 0 -26 25z" />
<glyph unicode="3" horiz-adv-x="1208" d="M78 241.5q0 8.5 10 18.5l88 82q16 16 37 0l33 -35q90 -96 160 -123q88 -33 180 -32q164 0 261 75.5t97 202.5q0 260 -352 260h-82q-25 0 -25 27v92q0 27 25 27h65q109 0 183 32q139 66 139 207q0 104 -76 174t-218 70t-213 -72.5t-71 -165.5q0 -25 -24 -24h-125 q-25 0 -25 24q0 182 123 292t346.5 110t346 -120t122.5 -267.5t-94 -234.5t-155 -87v-2q72 0 170 -72q53 -39 88.5 -115.5t35.5 -176.5q0 -190 -149.5 -306t-392.5 -116q-121 0 -189.5 23.5t-109.5 45t-66.5 40t-52.5 40.5q-35 31 -66 72l-14 18q-10 8 -10 16.5z" />
<glyph unicode="4" horiz-adv-x="1245" d="M80 487v82q0 29 26 66l639 788q37 47 76 47h117q27 0 27 -24v-842h161q27 0 27 -26v-91q0 -27 -27 -26h-161v-307h176q27 0 26 -25v-104q1 -25 -26 -25h-590q-25 0 -25 25v104q0 25 25 25h235v307h-682q-25 0 -24 26zM264 604h522v645z" />
<glyph unicode="5" horiz-adv-x="1208" d="M78 241.5q0 8.5 10 18.5l88 82q16 16 28.5 6t40 -41t41 -43t49.5 -38.5t66 -39.5q90 -35 185 -34q170 0 265 86t95 238.5t-97 241.5t-263 89q-121 0 -236 -33q-127 -39 -137 -39q-41 0 -41 51v664q0 25 25 25h821q25 0 24 -25v-266q0 -25 -24 -25h-131q-25 0 -25 25v137 h-510v-416q2 0 30 8.5t56 14.5q90 18 185 18q244 0 375.5 -129t131.5 -348t-148 -351t-396 -132q-109 0 -172.5 20.5t-99 34.5t-65.5 34.5t-52.5 37t-42 37t-30.5 33t-22.5 26.5t-17.5 19t-6 13.5z" />
<glyph unicode="6" d="M78 731q0 344 151.5 548t440.5 204q205 0 328.5 -107.5t123.5 -279.5q1 -25 -26 -25h-123q-27 0 -27 25q0 82 -70.5 153.5t-205.5 71.5q-176 0 -276.5 -125t-119.5 -354q166 104 403.5 104t369 -129t131.5 -343t-145.5 -351t-401.5 -137t-404.5 200.5t-148.5 544.5z M268 694q4 -260 101.5 -401t266.5 -141t263 91t94 238.5t-96 236.5t-278.5 89t-350.5 -113z" />
<glyph unicode="7" horiz-adv-x="1224" d="M78 1182v276q0 25 26 25h1016q25 0 25 -25v-67q0 -211 -101 -363q-45 -70 -98 -137.5t-106.5 -147t-98.5 -174.5q-98 -209 -98 -542q0 -27 -27 -27h-129q-25 0 -24 25q0 250 49 434t118.5 288.5t139.5 186.5q172 197 178 395h-690v-147q0 -25 -25 -25h-129q-27 0 -26 25z " />
<glyph unicode="8" horiz-adv-x="1245" d="M78 420q0 100 34.5 178t84.5 117q98 76 168 76v2q-61 0 -149.5 80.5t-88.5 228t123 263.5t372.5 117t372.5 -116t123 -268q0 -76 -29.5 -139.5t-72.5 -98.5q-84 -67 -135 -67v-2q66 0 166 -76q51 -39 85.5 -117t34.5 -178q0 -190 -150.5 -312t-393 -122t-394 120.5 t-151.5 313.5zM262 432q0 -129 98.5 -204.5t262 -75.5t261 76.5t97.5 203.5t-87 201t-245 74h-53q-160 0 -247 -73t-87 -202zM311 1079q0 -72 31 -123t80 -75q94 -43 172 -43t127 10t100 33.5t82 74.5t31 123q0 102 -81 171t-230.5 69t-230.5 -68.5t-81 -171.5z" />
<glyph unicode="9" horiz-adv-x="1253" d="M78 993q0 215 145.5 352.5t401.5 137.5t402.5 -201t146.5 -543t-154 -547.5t-434 -205.5q-205 0 -329 107.5t-124 279.5q0 24 25 24h125q25 0 24 -24q0 -82 71 -154t208 -72q176 0 275.5 125t117.5 355q-166 -104 -403.5 -104.5t-367.5 127.5t-130 343zM262 987.5 q0 -147.5 96.5 -236.5t278.5 -89t350 112q-4 260 -101.5 401.5t-266 141.5t-263 -91t-94.5 -238.5z" />
<glyph unicode=":" horiz-adv-x="350" d="M78 82q0 41 28.5 68.5t68.5 27.5t68.5 -27.5t28.5 -68.5t-28.5 -68.5t-69.5 -27.5t-68.5 27.5t-27.5 68.5zM78 901q0 41 27.5 69.5t68.5 28.5t69.5 -28.5t28.5 -69.5t-28.5 -68.5t-68.5 -27.5t-68.5 27.5t-28.5 68.5z" />
<glyph unicode=";" horiz-adv-x="366" d="M78 80q0 41 27.5 68.5t74.5 27.5t78 -39t31 -132t-46 -146.5t-118 -53.5q-12 1 -12 11v34q0 12 22.5 12.5t48 28t25.5 80.5l-4 25q-10 -10 -43 -10t-58.5 26.5t-25.5 67.5zM80 901q0 41 27.5 69.5t68.5 28.5t69.5 -28.5t28.5 -69.5t-28.5 -68.5t-69.5 -27.5t-68.5 27.5 t-27.5 68.5z" />
<glyph unicode="&#x3c;" horiz-adv-x="897" d="M78 502v37q0 27 28 39l687 329q8 2 12 2q14 0 14 -18v-88q0 -29 -26 -41l-506 -242l506 -241q27 -10 26 -39v-88q0 -18 -14 -19q-4 0 -12 2l-687 328q-28 12 -28 39z" />
<glyph unicode="=" horiz-adv-x="866" d="M78 231v105q0 27 28 26h656q27 0 26 -26v-105q1 -26 -26 -26h-656q-29 0 -28 26zM78 715v102q0 29 28 29h656q27 0 26 -29v-102q1 -29 -26 -29h-656q-29 0 -28 29z" />
<glyph unicode="&#x3e;" horiz-adv-x="897" d="M78 152v88q0 29 28 39l504 241l-504 242q-29 14 -28 41v88q0 18 14 18q6 0 14 -2l687 -329q26 -12 26 -39v-37q0 -27 -26 -39l-687 -328q-8 -2 -14 -2q-14 0 -14 19z" />
<glyph unicode="?" horiz-adv-x="1191" d="M78 1022q0 193 126 327t380 134t392 -119t138 -299q0 -98 -35 -177t-86 -126t-112.5 -99.5t-112.5 -97.5t-86 -117.5t-35 -162.5q1 -25 -26 -25h-142q-27 0 -26 25q0 129 49 229t118.5 161.5t139.5 115.5q168 125 168 252.5t-90 201.5t-251 74t-244 -82t-85 -215 q0 -25 -25 -25h-129q-27 0 -26 25zM442 8q0 45 32 77t78 32t76.5 -32t30.5 -77t-30.5 -76.5t-76.5 -31.5t-78 31.5t-32 76.5z" />
<glyph unicode="@" horiz-adv-x="1603" d="M78 480.5q0 322.5 235.5 561t548 238.5t488.5 -161t176 -412.5t-139.5 -399t-313.5 -147.5h-41q-82 0 -82 59q0 8 2 19l6 51q0 -6 -22.5 -36t-75.5 -64.5t-115 -34.5q-123 0 -208.5 85t-85.5 269t117.5 303t268 119t197.5 -94l8 51q4 23 27 22h61q25 0 21 -24l-78 -604 h45q109 0 193 115.5t84 313t-142.5 315.5t-380.5 118q-276 0 -463.5 -202t-187.5 -465t168 -429t414 -166q123 0 225 18.5t143 39.5l41 18q25 14 35 -12l33 -72q10 -23 -11.5 -33t-58 -26.5t-157.5 -44t-250 -27.5q-309 0 -517 208t-208 530.5zM573 518q0 -129 58.5 -186.5 t137.5 -57.5t144.5 68t71.5 131l27 211q-4 61 -54.5 99t-105.5 38q-109 0 -194 -87t-85 -216z" />
<glyph unicode="A" horiz-adv-x="1722" d="M74 25v104q0 25 24 25h138l440 1163h-111q-27 0 -26 24v105q0 25 26 24h279q49 0 74.5 -20t44.5 -68l471 -1228h139q25 0 24 -25v-104q1 -25 -24 -25h-463q-25 0 -25 25v104q0 25 25 25h143l-133 354h-571l-133 -354h143q25 0 25 -25v-104q0 -25 -25 -25h-461 q-25 0 -24 25zM602 649h463l-227 608h-7z" />
<glyph unicode="B" horiz-adv-x="1394" d="M98 25v104q0 25 27 25h156v1163h-156q-27 0 -27 24v105q0 25 27 24h659q205 0 319 -108.5t114 -284.5q0 -207 -183 -309q262 -76 262 -348q0 -193 -128 -306.5t-382 -113.5h-661q-27 0 -27 25zM459 154h313q162 0 253 68.5t91 211.5q0 256 -332 256h-325v-536zM459 825 h313q106 2 185 61.5t79 186.5t-83 185.5t-203 58.5h-291v-492z" />
<glyph unicode="C" horiz-adv-x="1540" d="M98 742q0 339 202 540t486 201q317 0 461 -219l-2 182q-4 25 25 24h114q27 0 27 -24v-447q0 -27 -27 -26h-129q-25 0 -24 26v19q0 94 -128 195.5t-318.5 101.5t-343 -150.5t-152.5 -426t153.5 -428t360.5 -152.5q223 0 352 100q100 78 148 158q16 31 38 12l86 -57 q10 -8 10.5 -19.5t-9 -31t-31 -51t-76.5 -87t-120.5 -95.5t-173 -70.5t-230.5 -30.5q-299 0 -499 208.5t-200 547.5z" />
<glyph unicode="D" horiz-adv-x="1515" d="M88 25v104q0 25 25 25h157v1163h-157q-25 0 -25 24v105q0 25 25 24h553q340 0 540.5 -195.5t200.5 -537.5t-190.5 -539.5t-516.5 -197.5h-587q-25 0 -25 25zM449 154h202q569 4 570 579q0 276 -146.5 430t-429.5 154h-196v-1163z" />
<glyph unicode="E" horiz-adv-x="1337" d="M98 25v104q0 25 27 25h156v1163h-156q-27 0 -27 24v105q0 25 27 24h1087q27 0 27 -24v-330q0 -27 -27 -26h-110q-25 0 -25 26v201h-618v-508h518q27 0 27 -25v-104q0 -25 -27 -25h-518v-501h616v200q0 25 27 25h110q27 0 27 -25v-329q0 -25 -27 -25h-1087q-27 0 -27 25z " />
<glyph unicode="F" horiz-adv-x="1300" d="M98 25v104q0 25 27 25h156v1163h-156q-27 0 -27 24v105q0 25 27 24h1051q27 0 26 -24v-330q0 -27 -26 -26h-111q-25 0 -25 26v201h-581v-508h481q27 0 27 -25v-104q0 -25 -27 -25h-481v-501h231q25 0 25 -25v-104q0 -25 -25 -25h-565q-27 0 -27 25z" />
<glyph unicode="G" horiz-adv-x="1536" d="M98 743q0 227 101.5 399.5t258 256.5t339.5 84q313 0 450 -195l-2 158q-4 25 25 24h114q27 0 27 -24v-422q0 -25 -27 -25h-129q-25 0 -24 25v25q0 90 -124 178t-316.5 88t-347 -159t-154.5 -424t155.5 -419.5t348 -154.5t304 61.5t167.5 145.5v159h-381q-25 0 -25 27v94 q0 25 25 25h530q25 0 25 -25v-620q0 -25 -25 -25h-108q-27 0 -27 25l2 141q-180 -180 -480 -180t-501 208.5t-201 548.5z" />
<glyph unicode="H" horiz-adv-x="1679" d="M98 25v104q0 25 27 25h156v1163h-156q-27 0 -27 24v105q0 25 27 24h491q27 0 27 -24v-105q0 -25 -27 -24h-157v-512h762v512h-158q-25 0 -25 24v105q0 25 25 24h493q25 0 25 -24v-105q0 -25 -25 -24h-157v-1163h157q25 0 25 -25v-104q0 -25 -25 -25h-493q-25 0 -25 25 v104q0 25 25 25h158v501h-762v-501h157q27 0 27 -25v-104q0 -25 -27 -25h-491q-27 0 -27 25z" />
<glyph unicode="I" horiz-adv-x="741" d="M98 25v104q0 25 27 25h156v1163h-156q-27 0 -27 24v105q0 25 27 24h491q27 0 27 -24v-105q0 -25 -27 -24h-157v-1163h157q27 0 27 -25v-104q0 -25 -27 -25h-491q-27 0 -27 25z" />
<glyph unicode="J" horiz-adv-x="991" d="M98 25v104q0 25 27 25q225 0 315 93t90 290v780h-155q-27 0 -27 24v105q0 25 27 24h491q27 0 27 -24v-105q0 -25 -27 -24h-157v-762q0 -301 -141.5 -428t-442.5 -127q-27 0 -27 25z" />
<glyph unicode="K" horiz-adv-x="1562" d="M98 25v104q0 25 27 25h156v1163h-156q-27 0 -27 24v105q0 25 27 24h459q25 0 24 -24v-105q0 -25 -24 -24h-125v-576h215q217 0 322.5 128t105.5 448h-139q-25 0 -25 24v105q0 25 25 24h456q25 0 25 -24v-105q0 -25 -25 -24h-141q0 -494 -279 -645q47 -23 74 -58.5 t62 -105.5l178 -354h125q25 0 24 -25v-104q1 -25 -24 -25h-178q-74 0 -123 98l-193 391q-16 33 -29.5 51.5t-57.5 37t-109 18.5h-289v-442h188q27 0 27 -25v-104q0 -25 -27 -25h-522q-27 0 -27 25z" />
<glyph unicode="L" horiz-adv-x="1372" d="M98 25v104q0 25 27 25h156v1163h-156q-27 0 -27 24v105q0 25 27 24h489q27 0 27 -26v-101q0 -27 -27 -26h-155v-1163h651v200q0 25 27 25h110q25 0 25 -25v-327q0 -27 -27 -27h-1120q-27 0 -27 25z" />
<glyph unicode="M" horiz-adv-x="1882" d="M98 25v104q0 25 27 25h156v1163h-156q-27 0 -27 24v105q0 25 27 24h315q70 0 97 -69l305 -737l96 -258h8q57 160 94 253l308 742q27 69 96 69h2h313q25 0 25 -24v-105q0 -25 -25 -24h-157v-1163h157q25 0 25 -25v-104q0 -25 -25 -25h-473q-25 0 -24 25v104q0 25 24 25 h137v1020h-2l-389 -967q-25 -61 -90 -61q-1 0 -1 -1q-64 0 -89 62l-389 967h-4v-1020h137q27 0 27 -25v-104q0 -25 -27 -25h-471q-27 0 -27 25z" />
<glyph unicode="N" horiz-adv-x="1679" d="M98 25v104q0 25 27 25h156v1163h-156q-27 0 -27 24v105q0 25 27 24h287q59 0 104 -69l584 -914l117 -198h4v1028h-158q-25 0 -25 24v105q0 25 25 24h493q25 0 25 -24v-105q0 -25 -25 -24h-157v-1292q0 -25 -27 -25h-110q-39 0 -61.5 15.5t-43.5 47.5l-592 926l-102 172 h-4v-1007h157q27 0 27 -25v-104q0 -25 -27 -25h-491q-27 0 -27 25z" />
<glyph unicode="O" horiz-adv-x="1624" d="M98 744.5q0 334.5 211 536.5t504 202t502 -202t209 -538.5t-202 -546.5t-508 -210t-511 212t-205 546.5zM291 738.5q0 -273.5 156.5 -430t365.5 -156.5t364.5 156.5t155.5 430t-158.5 428t-361.5 154.5t-362.5 -154.5t-159.5 -428z" />
<glyph unicode="P" horiz-adv-x="1347" d="M98 25v104q0 25 27 25h156v1163h-156q-27 0 -27 24v105q0 25 27 24h631q217 0 355 -125.5t138 -339.5t-135 -332t-381 -118h-274v-401h200q25 0 25 -25v-104q0 -25 -25 -25h-534q-27 0 -27 25zM459 700h266q344 0 344 304q0 158 -97.5 235.5t-244.5 77.5h-268v-617z" />
<glyph unicode="Q" horiz-adv-x="1574" d="M98 743q0 336 211 538t504 202t502 -202t209 -528.5t-178.5 -531.5t-458.5 -229q117 -78 340 -78q117 0 211 41q23 10 28 -8l31 -82q6 -21 -14 -33q-125 -55 -246 -55t-217 23.5t-158.5 57t-108.5 68.5t-67.5 58.5t-19.5 23.5q-250 45 -409 245t-159 490zM291 737 q0 -272 155.5 -425.5t365.5 -153.5t365.5 153.5t155.5 427t-158.5 425t-361.5 151.5q-197 0 -352 -139q-76 -70 -123 -183.5t-47 -255.5z" />
<glyph unicode="R" horiz-adv-x="1464" d="M98 25v104q0 25 27 25h156v1163h-156q-27 0 -27 24v105q0 25 27 24h631q219 0 356 -115.5t137 -326.5q0 -322 -301 -401q39 -31 96 -138l173 -335h124q25 0 25 -25v-104q0 -25 -25 -25h-178q-74 0 -123 98l-192 391q-25 51 -52.5 76t-76.5 27h-260v-438h184q25 0 25 -25 v-104q0 -25 -25 -25h-518q-27 0 -27 25zM459 737h262q348 0 348 285q0 295 -348 295h-262v-580z" />
<glyph unicode="S" horiz-adv-x="1363" d="M98 25v479q0 27 27 26h129q25 0 25 -26v-43q0 -39 47 -103.5t94 -105.5t126 -70.5t171 -29.5q158 0 247 65.5t89 181.5q0 68 -50.5 116t-130 77t-177 53.5t-195 56t-177 75.5t-130 123t-50.5 185q0 172 130 285t350 113q276 0 405 -162l-4 127q0 25 27 25h114 q25 0 25 -25v-447q0 -25 -25 -24h-129q-25 0 -24 24v58q0 84 -94.5 170t-276.5 86q-135 0 -218 -64.5t-83 -165.5q0 -72 51 -123t133 -81.5t180.5 -56t196.5 -56.5t180 -74t133.5 -117.5t51.5 -177.5q0 -180 -129 -296.5t-385 -116.5q-188 0 -311.5 75.5t-178.5 163.5 l2 -200q1 -25 -24 -25h-115q-27 0 -27 25z" />
<glyph unicode="T" horiz-adv-x="1488" d="M98 1100v344q0 27 29 26h1235q29 0 29 -26v-344q0 -29 -29 -29h-117q-27 0 -26 29v217h-383v-1163h143q29 0 29 -27v-100q0 -27 -29 -27h-477q-27 0 -27 27v100q0 27 27 27h155v1163h-387v-217q0 -29 -28 -29h-115q-29 0 -29 29z" />
<glyph unicode="U" horiz-adv-x="1667" d="M98 1341v105q0 25 27 24h491q27 0 27 -24v-105q0 -25 -27 -24h-157v-772q0 -393 377 -393q193 0 282.5 101t89.5 279v785h-157q-25 0 -25 24v105q0 25 25 24h493q25 0 25 -24v-105q0 -25 -25 -24h-158v-766q0 -276 -144 -420.5t-407.5 -144.5t-408.5 144t-145 421v766 h-156q-27 0 -27 24z" />
<glyph unicode="V" horiz-adv-x="1736" d="M98 1341v105q0 25 27 24h461q25 0 24 -24v-105q0 -25 -24 -24h-140l416 -1100h12l416 1100h-139q-27 0 -27 24v105q0 25 27 24h461q27 0 26 -24v-105q0 -25 -26 -24h-135l-473 -1235q-14 -43 -34 -62.5t-61 -19.5h-80q-39 0 -59 18.5t-37 63.5l-477 1235h-131 q-27 0 -27 24z" />
<glyph unicode="W" horiz-adv-x="2240" d="M78 1341v105q0 25 26 24h461q27 0 27 -24v-105q0 -25 -27 -24h-143l317 -1100h13l284 1253h164l287 -1253h12l318 1100h-146q-25 0 -24 24v105q0 25 24 24h463q25 0 25 -24v-105q0 -25 -25 -24h-131l-375 -1235q-24 -82 -96 -82h-78q-76 0 -96 82l-238 1040h-6 l-233 -1040q-20 -82 -99 -82h-75q-72 0 -99 82l-375 1235h-129q-27 0 -26 24z" />
<glyph unicode="X" horiz-adv-x="1667" d="M98 25v104q0 25 27 25h158l442 587l-444 576h-156q-27 0 -27 24v105q0 25 27 24h491q27 0 27 -24v-105q0 -25 -27 -24h-139l348 -463l349 463h-125q-25 0 -25 24v105q0 25 25 24h493q25 0 25 -24v-105q0 -25 -25 -24h-170l-442 -576l434 -587h164q25 0 24 -25v-104 q1 -25 -24 -25h-494q-25 0 -24 25v104q0 25 24 25h135l-340 477l-350 -477h137q27 0 27 -25v-104q0 -25 -27 -25h-491q-27 0 -27 25z" />
<glyph unicode="Y" horiz-adv-x="1554" d="M98 1341v105q0 25 27 24h461q25 0 24 -24v-105q0 -25 -24 -24h-135l321 -569h12l320 569h-135q-25 0 -25 24v105q0 25 25 24h463q25 0 24 -24v-105q0 -25 -24 -24h-142q-100 -147 -261 -434t-163 -289v-440h158q25 0 25 -25v-104q0 -25 -25 -25h-494q-25 0 -24 25v104 q0 25 24 25h158v438l-82 141q-266 473 -342 584h-139q-27 0 -27 24z" />
<glyph unicode="Z" horiz-adv-x="1312" d="M98 27v88q0 20 41 69l832 1133h-701v-166q0 -29 -28 -29h-115q-29 0 -29 29v293q0 27 29 26h1061q27 0 26 -26v-76q0 -35 -40 -84l-832 -1130h702v165q0 29 27 29h117q27 0 26 -29v-292q1 -27 -26 -27h-1061q-29 0 -29 27z" />
<glyph unicode="[" horiz-adv-x="622" d="M78 -121v1665q0 25 26 25h412q29 0 29 -29v-106q0 -27 -29 -27h-266v-1391h266q29 0 29 -28v-107q0 -26 -29 -26h-412q-27 0 -26 24z" />
<glyph unicode="\" horiz-adv-x="829" d="M78 1540q0 16 20 16h121q27 0 33 -24l496 -1659q2 -6 2 -10q0 -14 -21 -15h-121q-23 0 -33 25l-495 1659q-2 4 -2 8z" />
<glyph unicode="]" horiz-adv-x="622" d="M78 -12q0 29 28 28h267v1391h-267q-29 0 -28 27v106q0 29 28 29h412q27 0 27 -25v-1665q0 -25 -27 -24h-412q-29 0 -28 26v107z" />
<glyph unicode="_" horiz-adv-x="1134" d="M78 -74q0 27 28 27h924q27 0 27 -27v-104q0 -27 -27 -27h-924q-29 0 -28 27v104z" />
<glyph unicode="`" horiz-adv-x="595" d="M72 1466.5q0 10.5 6 20.5l65 76q10 12 19.5 12t19.5 -8l330 -291q12 -8 12 -18.5t-8 -20.5l-51 -59q-10 -12 -20.5 -12.5t-18.5 8.5l-344 274q-10 8 -10 18.5z" />
<glyph unicode="a" d="M78 507.5q0 231.5 128 373t333 141.5q135 0 220 -54.5t120 -131.5h2v145q0 27 24 27h107q25 0 24 -27v-844h115q25 0 25 -24v-88q0 -25 -25 -25h-178q-88 0 -88 86v119h-4q-96 -219 -342 -219q-209 0 -335 145t-126 376.5zM246 505q0 -169 90 -272.5t225 -103.5 t224 102.5t89 274.5t-89 272.5t-224 100.5t-225 -102.5t-90 -271.5z" />
<glyph unicode="b" d="M78 1358v88q0 25 26 24h252q27 0 27 -24v-545l-6 -80h6q35 84 121 142.5t213 58.5q207 0 333 -142.5t126 -375t-128 -375.5t-333 -143q-129 0 -215 60t-123 147h-2v-168q0 -25 -27 -25h-104q-25 0 -25 25v1308h-115q-27 0 -26 25zM379 507q0 -171 89 -274.5t226 -103.5 t225.5 104.5t88.5 273.5t-90.5 270.5t-224.5 101.5t-224 -100.5t-90 -271.5z" />
<glyph unicode="c" horiz-adv-x="1103" d="M78 506.5q0 238.5 144.5 377t353 138.5t315.5 -152h2l-2 113q0 27 27 27h77q25 0 25 -27v-348q0 -25 -25 -25h-94q-25 0 -24 25v35q-2 74 -84 141.5t-208 67.5t-230.5 -100.5t-104.5 -273.5t102.5 -274.5t229.5 -101.5t216 54.5t120 105.5q14 25 34 6l60 -57 q12 -10 12 -19.5t-9 -25t-39 -46t-82 -69.5t-135 -65.5t-177 -26.5q-215 0 -359.5 141t-144.5 379.5z" />
<glyph unicode="d" horiz-adv-x="1253" d="M78 504.5q0 232.5 128 375t335 142.5q127 0 211 -58.5t120 -142.5h2q-2 41 -2 68v444h-114q-27 0 -27 25v88q0 25 27 24h254q25 0 24 -24v-1309h115q25 0 25 -24v-88q0 -25 -25 -25h-178q-47 0 -68.5 19.5t-21.5 66.5v115h-2q-33 -86 -123 -150.5t-219 -64.5 q-205 0 -333 143t-128 375.5zM246 508q0 -170 89 -274.5t226 -104.5t225 103.5t88 275.5t-90 271.5t-223 99.5t-224 -100.5t-91 -270.5z" />
<glyph unicode="e" horiz-adv-x="1101" d="M78 506.5q0 238.5 143.5 377t351 138.5t326.5 -134t119 -362v-16q0 -27 -29 -27h-737q8 -170 107.5 -262t224.5 -92t214 53.5t120 104.5q16 20 36 6l56 -55q12 -12 12 -21.5t-9 -24t-38 -45t-81 -69.5t-135 -65.5t-177 -26.5q-215 0 -359.5 141t-144.5 379.5zM256 608 h592q-6 127 -80 203t-196.5 76t-211 -69.5t-104.5 -209.5z" />
<glyph unicode="f" horiz-adv-x="792" d="M78 895v88q0 25 26 25h117v127q0 170 87 259t243 89q115 0 207 -82q12 -10 12 -19.5t-6 -15.5l-49 -63q-18 -18 -35 -5q-49 39 -123 39t-120 -52t-46 -152v-125h262q27 0 27 -25v-88q0 -25 -27 -25h-262v-733h180q25 0 25 -24v-88q0 -25 -25 -25h-462q-27 0 -27 25v88 q0 25 27 24h112v733h-117q-27 0 -26 25z" />
<glyph unicode="g" horiz-adv-x="1251" d="M78 507.5q0 231.5 128 373t333 141.5q127 0 214 -58.5t126 -142.5h4l-2 162q0 25 24 25h242q25 0 24 -25v-88q0 -25 -24 -25h-111v-909q0 -219 -134 -329.5t-353 -110.5q-102 0 -154.5 14t-84 25.5t-54.5 22.5t-43 24q-72 47 -72 74q0 7 4 12l54 76q12 18 34 2 q2 0 13.5 -9.5t23 -17.5t30.5 -19.5t44 -20.5t53 -17q68 -18 150 -19q147 0 236 71t89 222v234q-37 -86 -121.5 -147.5t-211.5 -61.5q-209 0 -335 145t-126 376.5zM246 505q0 -169 90 -272.5t225 -103.5t224 102.5t89 274.5t-89 272.5t-224 100.5t-225 -102.5t-90 -271.5z " />
<glyph unicode="h" horiz-adv-x="1271" d="M78 25v88q0 25 26 24h113v1196h-113q-27 0 -26 25v88q0 25 26 24h258q25 0 25 -24v-457q0 -68 -8 -125h4q100 158 319 158q164 0 256.5 -96.5t94.5 -259.5v-529h114q27 0 27 -24v-88q0 -25 -27 -25h-194q-88 0 -88 86v539q0 119 -57.5 184t-168.5 65q-84 0 -128 -25.5 t-66.5 -45t-36.5 -37.5q-25 -33 -41 -68v-561h109q27 0 26 -24v-88q0 -25 -26 -25h-392q-27 0 -26 25z" />
<glyph unicode="i" horiz-adv-x="600" d="M78 25v88q0 25 26 24h113v733h-113q-27 0 -26 25v88q0 25 26 25h258q25 0 25 -25v-846h109q27 0 26 -24v-88q1 -25 -26 -25h-392q-27 0 -26 25zM184 1229q0 47 34 82t81 35t81 -35t34 -82t-34 -80t-81 -33t-81 33t-34 80z" />
<glyph unicode="j" horiz-adv-x="667" d="M10.5 -379q-0.5 10 7.5 19l48 61q18 18 36 4q49 -39 111 -39q174 0 174 205v999h-115q-25 0 -24 25v88q0 25 24 25h260q25 0 25 -25v-1114q0 -170 -87 -259t-243 -89q-115 0 -204 80q-12 10 -12.5 20zM360 1231q0 47 34 81t81 34t81 -34t34 -81t-34 -81t-81 -34t-81 34 t-34 81z" />
<glyph unicode="k" horiz-adv-x="1296" d="M78 25l2 88q0 25 24 24h113l2 1196h-115q-27 0 -24 25l-2 88q4 25 26 24h258q25 0 25 -24v-660q117 236 354 236q172 0 268.5 -95.5t96.5 -231.5t-104.5 -216t-231.5 -92l309 -250h88q27 0 27 -24l-2 -88q0 -25 -25 -25h-110q-53 0 -113 63l-369 314q-12 8 -12 20l2 56 q0 24 25 24h76q98 0 185 59.5t87 146.5t-60.5 145.5t-155.5 58.5t-177 -72q-139 -125 -156 -313l-2 -365h109q27 0 26 -24v-88q0 -25 -26 -25h-392q-27 0 -26 25z" />
<glyph unicode="l" horiz-adv-x="600" d="M78 25v88q0 25 26 24h113v1196h-113q-27 0 -26 25v88q0 25 26 24h228q55 0 55 -51v-1282h109q27 0 26 -24v-88q1 -25 -26 -25h-392q-27 0 -26 25z" />
<glyph unicode="m" horiz-adv-x="1906" d="M78 25v88q0 25 26 24h113v733h-113q-27 0 -26 25v88q0 25 26 25h201q35 0 50.5 -13.5t15.5 -48.5l-4 -102h6q106 178 330.5 178t306.5 -170q117 170 329 170q164 0 255.5 -96.5t91.5 -259.5l2 -529h114q27 0 27 -24v-88q0 -25 -27 -25h-194q-47 0 -68.5 19.5t-21.5 66.5 v539q0 119 -56.5 184t-167.5 65q-162 0 -254 -141q12 -37 13 -82v-514h114q25 0 25 -24v-88q0 -25 -25 -25h-391q-27 0 -26 25v88q0 25 26 24h109v488q0 119 -57.5 184t-168.5 65q-84 0 -128 -25.5t-66.5 -45t-36.5 -37.5q-25 -33 -41 -68v-561h100q25 0 25 -24v-88 q0 -25 -25 -25h-383q-27 0 -26 25z" />
<glyph unicode="n" horiz-adv-x="1271" d="M78 25v88q0 25 26 24h113v733h-113q-27 0 -26 25v88q0 25 26 25h240q27 0 27 -25l-4 -139h6q106 178 329 178q164 0 256.5 -96.5t94.5 -259.5v-529h114q27 0 27 -24v-88q0 -25 -27 -25h-194q-88 0 -88 86v539q0 119 -57.5 184t-168.5 65q-158 0 -245 -129 q-10 -12 -27 -45v-563h109q27 0 26 -24v-88q0 -25 -26 -25h-392q-27 0 -26 25z" />
<glyph unicode="o" horiz-adv-x="1177" d="M78 506.5q0 236.5 145.5 376t365.5 139.5t364.5 -140.5t144.5 -375t-143.5 -377.5t-366.5 -143t-366.5 142t-143.5 378.5zM250 506q0 -168 98 -272.5t240.5 -104.5t241 104.5t98.5 272.5t-99.5 270.5t-238.5 102.5t-239.5 -102.5t-100.5 -270.5z" />
<glyph unicode="p" d="M78 -348q0 25 26 24h115v1194h-110q-27 0 -27 25v88q0 25 27 25h239q27 0 27 -25l-2 -162h2q39 84 126 142.5t214 58.5q207 0 334 -140.5t127 -373t-125 -377.5t-334 -145q-127 0 -212 58t-122 142h-6q6 -66 6 -94v-416h133q27 0 27 -24v-88q0 -25 -27 -25h-412 q-27 0 -26 25v88zM379 500q0 -178 93 -274.5t225 -96.5t221.5 103.5t89.5 272.5t-89.5 271.5t-222.5 102.5t-225 -100.5t-92 -278.5z" />
<glyph unicode="q" d="M78 508.5q0 232.5 128 373t333 140.5q127 0 214 -58.5t126 -140.5h4l-2 160q0 25 24 25h107q25 0 24 -25v-1307h115q25 0 25 -24v-88q0 -25 -25 -25h-412q-27 0 -26 25v88q0 25 26 24h133v426l7 93h-7q-37 -86 -122.5 -147.5t-210.5 -61.5q-209 0 -335 145t-126 377.5z M246 505q0 -169 90 -272.5t225 -103.5t224 102.5t89 274.5t-89 272.5t-224 100.5t-225 -102.5t-90 -271.5z" />
<glyph unicode="r" horiz-adv-x="862" d="M78 25v88q0 25 26 24h113v733h-113q-27 0 -26 25v88q0 25 26 25h240q27 0 27 -25v-256h6q6 33 43 90t81 95t127 69t187 31q27 0 27 -27v-108q0 -27 -27 -27h-43q-176 0 -280.5 -112.5t-104.5 -256.5v-344h109q27 0 26 -24v-88q1 -25 -26 -25h-392q-27 0 -26 25z" />
<glyph unicode="s" horiz-adv-x="995" d="M86 27v307q0 27 27 26h80q29 0 28 -26v-41q20 -61 86 -113q78 -61 195 -61q229 0 229 160q0 55 -63.5 88.5t-154.5 56t-181 51.5t-153.5 93.5t-63.5 162.5q0 133 96 212t246 79q203 0 291 -119h4q-4 74 -4 76q0 27 26 27h66q27 0 26 -27v-285q0 -27 -26 -26h-80 q-29 0 -29 26v29q0 55 -64.5 109.5t-167 54.5t-159.5 -43t-57 -111.5t64.5 -106.5t156.5 -59.5t184 -48t156.5 -88t64.5 -170t-93.5 -191.5t-283.5 -83q-137 0 -219 51t-102 96h-4q4 -100 4 -106q0 -27 -29 -27h-69q-27 0 -27 27z" />
<glyph unicode="t" horiz-adv-x="821" d="M78 897v84q0 27 28 27h115v206q0 29 29 29h115q27 0 26 -29v-206h260q29 0 29 -27v-84q0 -27 -29 -27h-260v-532q0 -102 46 -154.5t123 -52.5t116 39q20 18 37 -2l49 -64q8 -8 8 -17t-12 -21q-90 -80 -226.5 -80t-223.5 89t-87 259v536h-115q-29 0 -28 27z" />
<glyph unicode="u" horiz-adv-x="1245" d="M51 895v88q0 25 25 25h196q88 0 88 -86v-539q0 -119 57.5 -184.5t168.5 -65.5q150 0 235 111q37 47 37 63v563h-110q-25 0 -25 25v88q0 25 25 25h253q25 0 25 -25v-846h115q27 0 26 -24v-88q1 -25 -26 -25h-178q-88 0 -89 86v76h-6q-84 -176 -319 -176q-164 0 -259 97 t-97 259v528h-117q-25 0 -25 25z" />
<glyph unicode="v" horiz-adv-x="1204" d="M20 895v88q0 25 25 25h381q25 0 25 -25v-88q0 -25 -25 -25h-90l262 -690h4l266 690h-92q-25 0 -24 25v88q0 25 24 25h381q27 0 27 -25v-88q0 -25 -27 -25h-113l-329 -833q-12 -37 -47 -37h-138q-20 0 -28 7t-17 30l-325 833h-115q-25 0 -25 25z" />
<glyph unicode="w" horiz-adv-x="1662" d="M29 895v88q0 25 24 25h383q25 0 25 -25v-88q0 -25 -25 -25h-94l207 -690h4l180 690h-80q-25 0 -24 25v88q0 25 24 25h361q25 0 24 -25v-88q0 -25 -24 -25h-80l180 -690h4l205 690h-92q-27 0 -27 25v88q0 25 27 25h381q25 0 24 -25v-88q0 -25 -24 -25h-113l-270 -827 q-16 -43 -49 -43h-121q-43 0 -49 43l-174 686h-5l-174 -686q-8 -43 -51 -43h-119q-37 0 -49 43l-270 827h-115q-25 0 -24 25z" />
<glyph unicode="x" horiz-adv-x="1140" d="M45 25v88q0 25 25 24h98l299 377l-299 356h-98q-25 0 -25 25v88q0 25 25 25h385q25 0 24 -25v-88q0 -25 -24 -25h-97l242 -292l207 292h-82q-25 0 -25 25v88q0 25 25 25h346q25 0 25 -25v-88q0 -25 -25 -25h-110l-279 -378l299 -355h90q25 0 25 -24v-88q0 -25 -25 -25 h-385q-25 0 -24 25v88q0 25 24 24h102l-241 297l-225 -297h94q25 0 24 -24v-88q0 -25 -24 -25h-346q-25 0 -25 25z" />
<glyph unicode="y" horiz-adv-x="1140" d="M51 895v88q0 25 25 25h196q88 0 88 -86v-539q0 -119 57.5 -184.5t168.5 -65.5q150 0 235 111q37 47 37 63v563h-110q-25 0 -25 25v88q0 25 25 25h253q25 0 25 -25l2 -1022q0 -219 -135 -329.5t-354 -110.5q-119 0 -175.5 18.5t-87 30.5t-55.5 29q-89 55 -89 82q0 7 5 12 l51 76q16 18 45 -7q109 -94 281 -94q360 0 360 293v201h-6q-84 -176 -319 -176q-164 0 -259 97t-97 259v528h-117q-25 0 -25 25z" />
<glyph unicode="z" horiz-adv-x="1062" d="M78 25v84q0 39 31 69l663 692h-555v-157q0 -25 -24 -25h-89q-27 0 -26 25v270q0 25 26 25h854q27 0 27 -25v-72q0 -37 -33 -65l-671 -709h563v162q0 25 26 25h88q27 0 27 -25v-274q0 -25 -27 -25h-854q-27 0 -26 25z" />
<glyph unicode="{" horiz-adv-x="698" d="M78 682v63q0 27 34.5 28t85 66.5t50.5 170.5v233q0 324 344 324q27 0 26 -27v-106q0 -27 -26 -27q-90 0 -131 -42t-41 -136v-217q0 -82 -34 -147.5t-67 -90.5l-32 -26v-70q86 -57 119 -166q14 -45 14 -96v-230q0 -94 40 -134t132 -40q26 1 26 -26v-107q0 -27 -26 -26 q-344 0 -344 319v246q0 102 -50.5 168.5t-85 66.5t-34.5 29z" />
<glyph unicode="|" horiz-adv-x="327" d="M78 -244v1776q0 25 26 24h121q25 0 25 -24v-1776q0 -24 -25 -24h-121q-27 0 -26 24z" />
<glyph unicode="}" horiz-adv-x="698" d="M78 -14q0 27 28 26q90 0 131.5 40t41.5 134v230q0 170 133 262v70q-14 8 -37 27.5t-59.5 87t-36.5 149.5v217q0 94 -41 136t-132 42q-29 0 -28 27v106q0 27 28 27q344 0 345 -324v-233q0 -104 49 -170t83.5 -67t34.5 -28v-63q0 -29 -33.5 -29t-83.5 -66.5t-50 -168.5 v-246q0 -319 -345 -319q-29 0 -28 26v107z" />
<glyph unicode="&#xa1;" horiz-adv-x="372" d="M78 999q0 45 31.5 77t77.5 32t77 -32t31 -77t-31 -76.5t-77 -31.5t-77.5 31.5t-31.5 76.5zM100 -524v1204q0 25 25 25h123q25 0 24 -25v-1204q1 -25 -24 -25h-123q-25 0 -25 25z" />
<glyph unicode="&#xa2;" horiz-adv-x="1103" d="M78 624q0 216 122 351t300 158v145q0 25 26 25h88q25 0 25 -25v-150q184 -27 252 -143h6l-6 115q0 25 27 24h77q25 0 25 -24v-348q0 -25 -25 -25h-94q-25 0 -24 25v34q-2 72 -84 139.5t-208 67.5t-230.5 -100t-104.5 -272t102.5 -273.5t229.5 -101.5t216 54t120 106 q14 23 34 6l60 -60q10 -8 10 -18t-11.5 -29.5t-49 -58.5t-128 -85t-194.5 -57v-106q0 -25 -25 -25h-90q-25 0 -24 25v111q-184 25 -303 162t-119 353z" />
<glyph unicode="&#xa3;" horiz-adv-x="1224" d="M78 631v76q0 25 26 24h150q-92 156 -92 293q0 209 144.5 334t364.5 125t344 -114t124 -308v-33q0 -25 -27 -24h-125q-27 0 -26 24v35q0 113 -77 186.5t-211 73.5t-229.5 -77t-95.5 -234q0 -80 25 -131l33 -64q6 -12 26.5 -44t26.5 -42h389q27 0 26 -24v-76q0 -25 -26 -25 h-330q18 -63 19 -119q0 -182 -187 -333h772q25 0 25 -25v-104q0 -25 -25 -25h-999q-25 0 -25 25v98q0 31 23 45q55 27 108.5 79t73.5 81q47 72 47 143.5t-24 134.5h-222q-27 0 -26 25z" />
<glyph unicode="&#xa5;" horiz-adv-x="1554" d="M98 1341v105q0 25 27 24h461q25 0 24 -24v-105q0 -25 -24 -24h-135l321 -569h12l320 569h-135q-25 0 -25 24v105q0 25 25 24h463q25 0 24 -24v-105q0 -25 -24 -24h-142l-258 -459h164q25 0 25 -24v-80q0 -27 -25 -27h-248l-61 -102v-54h223q25 0 25 -24v-80 q0 -27 -25 -27h-244v-286h158q25 0 25 -25v-104q0 -25 -25 -25h-494q-25 0 -24 25v104q0 25 24 25h158v286h-256q-25 0 -24 27v80q0 25 24 24h232v54l-60 102h-254q-27 0 -26 27v80q0 25 26 24h172l-258 459h-139q-27 0 -27 24z" />
<glyph unicode="&#xa6;" horiz-adv-x="327" d="M78 -244v668q0 25 26 25h121q25 0 25 -25v-668q0 -24 -25 -24h-121q-27 0 -26 24zM78 864v668q0 25 26 24h121q25 0 25 -24v-668q0 -24 -25 -24h-121q-27 0 -26 24z" />
<glyph unicode="&#xa7;" horiz-adv-x="1323" d="M78 45q0 25 26 25h129q25 0 25 -25v-45q6 -55 96 -166q47 -57 138.5 -99t226.5 -42t224 64.5t89 183.5q0 72 -50 123t-130 79.5t-177 52t-194.5 54.5t-177.5 73t-130 119.5t-50 198.5t80 219q-80 90 -80 225q0 172 130 285t349 113q276 0 406 -162l-4 127q0 25 26 25h115 q25 0 24 -25v-447q0 -25 -24 -24h-129q-25 0 -25 24v52q0 86 -92 174t-278 88q-135 0 -218.5 -64.5t-83.5 -153.5t51.5 -143.5t133.5 -84t180 -55.5t196.5 -55.5t180.5 -69.5t133 -113.5t51 -176.5q0 -150 -82 -245q82 -86 82 -213q0 -180 -129 -297t-385 -117 q-188 0 -311 74.5t-176 162.5h-4l4 -198q2 -25 -25 -25h-115q-27 0 -26 25v479zM319.5 627q-0.5 -74 44 -126t122 -83t157.5 -53q260 -68 340 -111q49 59 49 145t-72.5 142.5t-164.5 79.5q-324 78 -426 135q-49 -55 -49.5 -129z" />
<glyph unicode="&#xa8;" horiz-adv-x="641" d="M72 1225q0 37 24.5 62.5t61.5 25.5t62.5 -25.5t25.5 -62.5t-25.5 -61.5t-62.5 -24.5t-61.5 24.5t-24.5 61.5zM395 1225q0 37 24.5 62.5t61.5 25.5t62.5 -25.5t25.5 -62.5t-25.5 -61.5t-62.5 -24.5t-61.5 24.5t-24.5 61.5z" />
<glyph unicode="&#xa9;" horiz-adv-x="1372" d="M78 713q0 248 180 428t428 180t428 -180t180 -428t-180 -428.5t-428 -180.5t-428 180.5t-180 428.5zM186 713q0 -207 146.5 -353.5t353.5 -146.5t354.5 146.5t147.5 353.5t-147.5 353t-354.5 146t-353.5 -146t-146.5 -353zM344 719q0 166 98.5 263t239.5 97 q82 0 149.5 -34.5t94.5 -65.5q45 -51 45 -63.5t-8 -20.5l-60 -41q-14 -8 -22 4q-59 106 -199 107q-92 0 -154.5 -62.5t-62.5 -181.5t63.5 -183.5t157.5 -64.5q137 0 195 100q10 16 22 7l58 -37q10 -8 10 -14.5t-10.5 -24t-36 -47t-93 -64.5t-149.5 -35q-141 0 -239.5 97.5 t-98.5 263.5z" />
<glyph unicode="&#xaa;" horiz-adv-x="671" d="M78 1118q0 150 227 150h121v6q0 63 -23.5 93t-97.5 30q-76 0 -141 -43q-8 -4 -14 4l-33 43q-6 10 0 14q57 68 192 68q213 0 213 -213v-217h60q10 0 10 -11v-57q0 -12 -10 -12h-101q-45 0 -45 43v26h-2q-78 -78 -166 -77.5t-139 41.5t-51 112zM180 1128q0 -37 27 -58 t74 -21q88 0 145 65v90h-115q-131 0 -131 -76z" />
<glyph unicode="&#xab;" horiz-adv-x="1067" d="M78 483v45q0 25 28 43l451 314q10 6 18.5 6t8.5 -17v-90q0 -27 -27 -45l-338 -235l338 -234q27 -23 27 -45v-90q0 -16 -15 -16q-6 0 -12 6l-451 311q-29 23 -28 47zM483 483v45q0 25 27 43l451 314q10 6 19 6t9 -17v-90q0 -27 -28 -45l-338 -235l338 -234q29 -20 28 -45 v-90q0 -18 -8 -18t-20 8l-451 311q-27 20 -27 47z" />
<glyph unicode="&#xac;" horiz-adv-x="1157" d="M78 690v88q0 27 28 27h945q27 0 26 -27v-465q1 -24 -24 -24h-95q-27 0 -26 24v351h-826q-29 0 -28 26z" />
<glyph unicode="&#xad;" horiz-adv-x="847" d="M78 481v105q0 27 28 26h637q27 0 27 -26v-105q0 -26 -27 -26h-637q-29 0 -28 26z" />
<glyph unicode="&#xae;" horiz-adv-x="1372" d="M78 713q0 248 180 428t428 180t428 -180t180 -428t-180 -428.5t-428 -180.5t-428 180.5t-180 428.5zM178 713q0 -211 148.5 -359.5t359.5 -148.5t359.5 148.5t148.5 359.5t-148.5 359.5t-359.5 148.5t-359.5 -148.5t-148.5 -359.5zM399 379v72q0 10 11 10h63v522h-63 q-10 0 -11 12v72q0 10 11 10h303q104 0 168.5 -53t64.5 -158q0 -156 -141 -194q2 -2 37 -62l76 -147h65q10 0 10 -10v-74q0 -12 -10 -12h-94q-29 0 -51 45l-105 202q-25 45 -53 45h-107v-198h76q12 0 13 -10v-72q0 -12 -13 -12h-239q-10 0 -11 12zM573 748h134 q137 0 137 116q0 57 -37 88t-100 31h-134v-235z" />
<glyph unicode="&#xaf;" horiz-adv-x="802" d="M72 1161v86q0 29 26 29h607q27 0 26 -29v-86q1 -26 -26 -26h-607q-27 0 -26 26z" />
<glyph unicode="&#xb0;" horiz-adv-x="450" d="M78 1010.5q0 70.5 43 114.5t104.5 44t104.5 -44t43 -114.5t-42 -111.5t-105.5 -41t-105.5 41t-42 111.5zM156 1014q0 -35 20.5 -56.5t49 -21.5t49 21.5t20.5 56.5t-20.5 56.5t-49 21.5t-49 -21.5t-20.5 -56.5z" />
<glyph unicode="&#xb1;" horiz-adv-x="821" d="M78 213v104q0 27 28 27h609q27 0 26 -27v-104q1 -27 -26 -27h-609q-29 0 -28 27zM78 700v105q0 27 28 26h224v226q0 25 24 24h119q25 0 25 -24v-226h217q27 0 26 -26v-105q1 -26 -26 -26h-217v-219q0 -27 -25 -27h-119q-25 0 -24 27v219h-224q-29 0 -28 26z" />
<glyph unicode="&#xb4;" horiz-adv-x="595" d="M72 1257.5q0 10.5 12 18.5l330 289q8 8 18 8t21 -10l63 -78q8 -10 8 -19.5t-10 -19.5l-344 -275q-10 -6 -20.5 -6t-18.5 13l-51 59q-8 10 -8 20.5z" />
<glyph unicode="&#xb6;" horiz-adv-x="1357" d="M78 968.5q0 243.5 133 372.5t348 129h696q25 0 25 -24v-105q0 -25 -25 -24h-90v-1452q1 -25 -24 -25h-129q-25 0 -25 25v1452h-147v-1452q0 -25 -25 -25h-127q-27 0 -26 25v618h-82q-231 0 -366.5 121t-135.5 364.5z" />
<glyph unicode="&#xb7;" horiz-adv-x="309" d="M57 594q0 41 29 68.5t70 27.5t68.5 -27.5t27.5 -68.5t-27.5 -68.5t-68.5 -27.5t-70 27.5t-29 68.5z" />
<glyph unicode="&#xb8;" horiz-adv-x="483" d="M72 -256q0 8 6 16l20 25q16 16 35 6q39 -27 90 -27q88 0 88 68q0 53 -100 53q-27 0 -36 8.5t-3 26.5l41 117l86 -2l-31 -86q29 0 68 -10q76 -25 76 -101t-48.5 -116.5t-128 -40.5t-151.5 47q-12 8 -12 16z" />
<glyph unicode="&#xba;" horiz-adv-x="649" d="M78 1228q0 118 72.5 186.5t175 68.5t174 -70t71.5 -186.5t-71.5 -189t-175 -72.5t-175 72.5t-71.5 190.5zM166 1224q0 -81 46 -127t113.5 -46t112.5 46t45 128t-47 128t-110.5 46t-111.5 -47t-48 -128z" />
<glyph unicode="&#xbb;" horiz-adv-x="1067" d="M78 135v90q0 25 28 45l338 234l-338 235q-29 18 -28 45v90q0 18 8 18.5t20 -7.5l451 -314q27 -18 27 -43v-45q0 -27 -27 -47l-451 -311q-10 -6 -19 -6t-9 16zM483 135v90q0 25 27 45l338 234l-338 235q-27 16 -27 45v90q0 16 13 17q6 0 14 -6l451 -314q29 -18 28 -43v-45 q0 -25 -28 -47l-451 -311q-10 -6 -18.5 -6t-8.5 16z" />
<glyph unicode="&#xbd;" horiz-adv-x="1439" d="M80 1307.5q0 5.5 8 11.5l199 151q10 6 26 7h80q16 0 17 -19v-618h127q20 0 20 -19v-59q0 -21 -20 -21h-392q-18 0 -18 21v59q0 18 18 19h150v512l-150 -113q-12 -8 -20 2l-43 57q-2 4 -2 9.5zM348 -127l496 1659q8 25 35 24h120q25 0 17 -24l-496 -1659q-6 -25 -33 -25 h-120q-25 0 -19 25zM823 20v43q0 84 43 141.5t102.5 89.5t120 58.5t102.5 66.5t42 97t-37 89t-100 32q-156 0 -156 -127q0 -16 -14 -16h-80q-16 0 -17 16q0 94 68 162.5t194 68.5t192.5 -63.5t66.5 -147.5t-40 -138t-97.5 -86t-114.5 -58q-143 -66 -150 -150h309v72 q0 16 17 16h72q16 0 16 -16v-150q-1 -20 -21 -20h-497q-20 0 -21 20z" />
<glyph unicode="&#xbf;" horiz-adv-x="1191" d="M78 -143q0 98 34.5 177t86 126t113 99t112.5 97t86 118t35 163q0 25 26 25h142q27 0 26 -25q0 -129 -49 -229.5t-118.5 -162t-139.5 -114.5q-168 -125 -168 -253t90 -201.5t251 -73.5t244 82t85 215q-1 24 24 24h129q27 0 27 -24q0 -193 -127 -327t-380 -134t-391 118.5 t-138 299.5zM532 913q0 45 31 77t77 32t78 -32t32 -77t-32 -76.5t-78 -31.5t-77 31.5t-31 76.5z" />
<glyph unicode="&#xc0;" horiz-adv-x="1722" d="M74 25v104q0 25 24 25h138l440 1163h-111q-27 0 -26 24v105q0 25 26 24h279q49 0 74.5 -20t44.5 -68l471 -1228h139q25 0 24 -25v-104q1 -25 -24 -25h-463q-25 0 -25 25v104q0 25 25 25h143l-133 354h-571l-133 -354h143q25 0 25 -25v-104q0 -25 -25 -25h-461 q-25 0 -24 25zM571.5 1929q-0.5 10 6.5 21l65 75q10 12 19.5 12.5t19.5 -7.5l330 -291q12 -8 12 -18.5t-8 -20.5l-51 -60q-10 -12 -20.5 -12t-18.5 8l-344 275q-10 8 -10.5 18zM602 649h463l-227 608h-7z" />
<glyph unicode="&#xc1;" horiz-adv-x="1722" d="M74 25v104q0 25 24 25h138l440 1163h-111q-27 0 -26 24v105q0 25 26 24h279q49 0 74.5 -20t44.5 -68l471 -1228h139q25 0 24 -25v-104q1 -25 -24 -25h-463q-25 0 -25 25v104q0 25 25 25h143l-133 354h-571l-133 -354h143q25 0 25 -25v-104q0 -25 -25 -25h-461 q-25 0 -24 25zM602 649h463l-227 608h-7zM727 1720.5q0 10.5 12 18.5l330 289q8 8 18.5 8t20.5 -11l63 -77q8 -10 8.5 -19.5t-10.5 -19.5l-344 -275q-10 -6 -20 -6t-19 12l-51 60q-8 10 -8 20.5z" />
<glyph unicode="&#xc2;" horiz-adv-x="1722" d="M74 25v104q0 25 24 25h138l440 1163h-111q-27 0 -26 24v105q0 25 26 24h279q49 0 74.5 -20t44.5 -68l471 -1228h139q25 0 24 -25v-104q1 -25 -24 -25h-463q-25 0 -25 25v104q0 25 25 25h143l-133 354h-571l-133 -354h143q25 0 25 -25v-104q0 -25 -25 -25h-461 q-25 0 -24 25zM483 1719.5q0 9.5 11 19.5l317 278q8 8 19.5 8t21.5 -10l317 -276q10 -12 10.5 -21.5t-5.5 -17.5l-52 -60q-8 -12 -18 -12t-21 8l-254 215l-249 -215q-10 -8 -19.5 -8t-19.5 12l-52 60q-6 10 -6 19.5zM602 649h463l-227 608h-7z" />
<glyph unicode="&#xc3;" horiz-adv-x="1722" d="M74 25v104q0 25 24 25h138l440 1163h-111q-27 0 -26 24v105q0 25 26 24h279q49 0 74.5 -20t44.5 -68l471 -1228h139q25 0 24 -25v-104q1 -25 -24 -25h-463q-25 0 -25 25v104q0 25 25 25h143l-133 354h-571l-133 -354h143q25 0 25 -25v-104q0 -25 -25 -25h-461 q-25 0 -24 25zM506 1620q0 221 176 221q76 0 158 -67.5t128 -67.5t64.5 28.5t18.5 104.5q-1 25 24 25h49q25 0 25 -25q0 -231 -178 -231q-66 0 -116 31.5t-90 64.5t-80 33t-60.5 -25.5t-20.5 -91.5q0 -25 -24 -25h-50q-25 0 -24 25zM602 649h463l-227 608h-7z" />
<glyph unicode="&#xc4;" horiz-adv-x="1722" d="M74 25v104q0 25 24 25h138l440 1163h-111q-27 0 -26 24v105q0 25 26 24h279q49 0 74.5 -20t44.5 -68l471 -1228h139q25 0 24 -25v-104q1 -25 -24 -25h-463q-25 0 -25 25v104q0 25 25 25h143l-133 354h-571l-133 -354h143q25 0 25 -25v-104q0 -25 -25 -25h-461 q-25 0 -24 25zM586 1687.5q0 36.5 24.5 62.5t61.5 26t62.5 -26t25.5 -62.5t-25.5 -61t-62.5 -24.5t-61.5 24.5t-24.5 61zM602 649h463l-227 608h-7zM909 1687.5q0 36.5 24.5 62.5t61.5 26t62.5 -26t25.5 -62.5t-25.5 -61t-62.5 -24.5t-61.5 24.5t-24.5 61z" />
<glyph unicode="&#xc5;" horiz-adv-x="1722" d="M74 25v104q0 25 24 25h138l440 1163h-111q-27 0 -26 24v105q0 25 26 24h279q49 0 74.5 -20t44.5 -68l471 -1228h139q25 0 24 -25v-104q1 -25 -24 -25h-463q-25 0 -25 25v104q0 25 25 25h143l-133 354h-571l-133 -354h143q25 0 25 -25v-104q0 -25 -25 -25h-461 q-25 0 -24 25zM602 649h463l-227 608h-7zM707 1761q0 29 20 64q31 51 100 51q29 0 64 -21q51 -31 51 -102q0 -28 -16 -55q-35 -59 -111 -60q-23 0 -57 21q-51 31 -51 102zM764 1755q0 -39 43 -53q10 -4 20.5 -4t22.5 6q33 16 33 55t-41 53q-10 4 -21 5q-39 0 -53 -41 q-4 -10 -4 -21z" />
<glyph unicode="&#xc6;" horiz-adv-x="2138" d="M98 25v104q0 25 27 25h137l496 1163h-113q-25 0 -24 24v105q0 25 24 24h1370q25 0 25 -24v-330q0 -27 -25 -26h-110q-27 0 -27 26v201h-616v-508h518q25 0 24 -25v-104q0 -25 -24 -25h-518v-501h616v200q0 25 25 25h112q25 0 25 -25v-329q0 -25 -25 -25h-1089 q-25 0 -25 25v104q0 25 25 25h157v501h-428l-213 -501h142q27 0 26 -25v-104q0 -25 -26 -25h-459q-27 0 -27 25zM717 809h366v508h-145z" />
<glyph unicode="&#xc7;" horiz-adv-x="1540" d="M98 752.5q0 328.5 202 529.5t486 201q317 0 461 -219l-2 182q-4 25 25 24h114q27 0 27 -24v-447q0 -27 -27 -26h-129q-25 0 -24 26v19q0 94 -128 195.5t-318.5 101.5t-343 -150.5t-152.5 -426t153.5 -428t360.5 -152.5q223 0 352 100q100 78 148 158q16 31 38 12l86 -57 q10 -8 10.5 -19.5t-9 -31t-31 -51t-74.5 -85t-117.5 -93.5t-169 -70.5t-223.5 -32.5l-12 -39q29 0 67 -10q76 -25 76 -101t-48 -116.5t-128 -40.5t-152 47q-23 14 -6 32l21 25q16 16 35 6q39 -27 90 -27q88 0 88 68q0 53 -101 53q-27 0 -36 8.5t-2 26.5l24 70 q-274 25 -452.5 229.5t-178.5 533z" />
<glyph unicode="&#xc8;" horiz-adv-x="1337" d="M98 25v104q0 25 27 25h156v1163h-156q-27 0 -27 24v105q0 25 27 24h1087q27 0 27 -24v-330q0 -27 -27 -26h-110q-25 0 -25 26v201h-618v-508h518q27 0 27 -25v-104q0 -25 -27 -25h-518v-501h616v200q0 25 27 25h110q27 0 27 -25v-329q0 -25 -27 -25h-1087q-27 0 -27 25z M385 1929q0 10 6 21l66 75q10 12 20 12.5t19 -7.5l329 -291q12 -8 12.5 -18.5t-8.5 -20.5l-51 -60q-10 -12 -20 -12t-19 8l-344 275q-10 8 -10 18z" />
<glyph unicode="&#xc9;" horiz-adv-x="1337" d="M98 25v104q0 25 27 25h156v1163h-156q-27 0 -27 24v105q0 25 27 24h1087q27 0 27 -24v-330q0 -27 -27 -26h-110q-25 0 -25 26v201h-618v-508h518q27 0 27 -25v-104q0 -25 -27 -25h-518v-501h616v200q0 25 27 25h110q27 0 27 -25v-329q0 -25 -27 -25h-1087q-27 0 -27 25z M469 1700q-18 23 4 39l330 289q8 8 18 8t21 -11l63 -77q16 -20 -2 -39l-344 -275q-25 -14 -39 6z" />
<glyph unicode="&#xca;" horiz-adv-x="1337" d="M98 25v104q0 25 27 25h156v1163h-156q-27 0 -27 24v105q0 25 27 24h1087q27 0 27 -24v-330q0 -27 -27 -26h-110q-25 0 -25 26v201h-618v-508h518q27 0 27 -25v-104q0 -25 -27 -25h-518v-501h616v200q0 25 27 25h110q27 0 27 -25v-329q0 -25 -27 -25h-1087q-27 0 -27 25z M285 1700q-14 23 4 39l317 278q8 8 19.5 8t21.5 -10l318 -276q16 -20 4 -39l-51 -60q-16 -20 -39 -4l-254 215l-250 -215q-20 -18 -39 4z" />
<glyph unicode="&#xcb;" horiz-adv-x="1337" d="M98 25v104q0 25 27 25h156v1163h-156q-27 0 -27 24v105q0 25 27 24h1087q27 0 27 -24v-330q0 -27 -27 -26h-110q-25 0 -25 26v201h-618v-508h518q27 0 27 -25v-104q0 -25 -27 -25h-518v-501h616v200q0 25 27 25h110q27 0 27 -25v-329q0 -25 -27 -25h-1087q-27 0 -27 25z M410 1687.5q0 36.5 24.5 62.5t61 26t62.5 -26t26 -62.5t-26 -61t-62.5 -24.5t-61 24.5t-24.5 61zM733 1687.5q0 36.5 24.5 62.5t61.5 26t62.5 -26t25.5 -62.5t-25.5 -61t-62.5 -24.5t-61.5 24.5t-24.5 61z" />
<glyph unicode="&#xcc;" horiz-adv-x="774" d="M66 1884q0 10 6 21l65 75q10 12 20.5 12.5t18.5 -7.5l330 -291q12 -8 12 -18.5t-8 -20.5l-51 -60q-10 -12 -20.5 -12t-18.5 8l-344 275q-10 8 -10 18zM131 25v104q0 25 27 25h155v1163h-155q-27 0 -27 24v105q0 25 27 24h491q27 0 27 -24v-105q0 -25 -27 -24h-157v-1163 h157q27 0 27 -25v-104q0 -25 -27 -25h-491q-27 0 -27 25z" />
<glyph unicode="&#xcd;" horiz-adv-x="800" d="M98 25v104q0 25 27 25h156v1163h-156q-27 0 -27 24v105q0 25 27 24h491q27 0 27 -24v-105q0 -25 -27 -24h-157v-1163h157q27 0 27 -25v-104q0 -25 -27 -25h-491q-27 0 -27 25zM250 1671q0 10 12 19l330 288q8 8 18.5 8.5t20.5 -10.5l63 -78q8 -10 8 -19t-10 -19 l-344 -275q-10 -6 -20.5 -6t-18.5 12l-51 60q-8 10 -8 20z" />
<glyph unicode="&#xce;" horiz-adv-x="780" d="M45 1719.5q0 9.5 10 19.5l318 278q8 8 19 8t22 -10l317 -276q10 -12 10 -21.5t-6 -17.5l-51 -60q-8 -12 -18.5 -12t-20.5 8l-254 215l-250 -215q-10 -8 -19 -8t-20 12l-51 60q-6 10 -6 19.5zM115 25v104q0 25 26 25h156v1163h-156q-27 0 -26 24v105q0 25 26 24h492 q27 0 26 -24v-105q0 -25 -26 -24h-158v-1163h158q27 0 26 -25v-104q1 -25 -26 -25h-492q-27 0 -26 25z" />
<glyph unicode="&#xcf;" horiz-adv-x="741" d="M98 25v104q0 25 27 25h156v1163h-156q-27 0 -27 24v105q0 25 27 24h491q27 0 27 -24v-105q0 -25 -27 -24h-157v-1163h157q27 0 27 -25v-104q0 -25 -27 -25h-491q-27 0 -27 25zM127 1687.5q0 36.5 24.5 62.5t61.5 26t62.5 -26t25.5 -62.5t-25.5 -61t-62.5 -24.5 t-61.5 24.5t-24.5 61zM451 1687.5q0 36.5 24.5 62.5t61 26t62.5 -26t26 -62.5t-26 -61t-62.5 -24.5t-61 24.5t-24.5 61z" />
<glyph unicode="&#xd0;" horiz-adv-x="1517" d="M98 25v104q0 25 27 25h156v510h-140q-29 0 -28 26v86q0 29 28 29h140v512h-156q-27 0 -27 24v105q0 25 27 24h551q340 0 540.5 -195.5t200.5 -537.5t-189 -539.5t-515 -197.5h-588q-27 0 -27 25zM459 154h205q279 2 424 147t145 427t-146.5 435.5t-429.5 153.5h-198v-512 h313q27 0 27 -29v-86q0 -27 -27 -26h-313v-510z" />
<glyph unicode="&#xd1;" horiz-adv-x="1679" d="M98 25v104q0 25 27 25h156v1163h-156q-27 0 -27 24v105q0 25 27 24h287q59 0 104 -69l584 -914l117 -198h4v1028h-158q-25 0 -25 24v105q0 25 25 24h493q25 0 25 -24v-105q0 -25 -25 -24h-157v-1292q0 -25 -27 -25h-110q-39 0 -61.5 15.5t-43.5 47.5l-592 926l-102 172 h-4v-1007h157q27 0 27 -25v-104q0 -25 -27 -25h-491q-27 0 -27 25zM535 1620q0 221 176 221q76 0 157.5 -67.5t127.5 -67.5t64.5 28.5t18.5 104.5q0 25 25 25h49q25 0 25 -25q0 -231 -179 -231q-66 0 -115.5 31.5t-89.5 64.5t-80 33t-60.5 -25.5t-20.5 -91.5q0 -25 -25 -25 h-49q-25 0 -24 25z" />
<glyph unicode="&#xd2;" horiz-adv-x="1624" d="M98 744.5q0 334.5 211 536.5t504 202t502 -202t209 -538.5t-202 -546.5t-508 -210t-511 212t-205 546.5zM291 738.5q0 -273.5 156.5 -430t365.5 -156.5t364.5 156.5t155.5 430t-158.5 428t-361.5 154.5t-362.5 -154.5t-159.5 -428zM528.5 1929q-0.5 10 6.5 21l65 75 q10 12 20.5 12.5t18.5 -7.5l330 -291q12 -8 12 -18.5t-8 -20.5l-51 -60q-10 -12 -20.5 -12t-18.5 8l-344 275q-10 8 -10.5 18z" />
<glyph unicode="&#xd3;" horiz-adv-x="1624" d="M98 744.5q0 334.5 211 536.5t504 202t502 -202t209 -538.5t-202 -546.5t-508 -210t-511 212t-205 546.5zM291 738.5q0 -273.5 156.5 -430t365.5 -156.5t364.5 156.5t155.5 430t-158.5 428t-361.5 154.5t-362.5 -154.5t-159.5 -428zM588 1700q-18 23 4 39l330 289 q8 8 18 8t21 -11l63 -77q16 -20 -2 -39l-344 -275q-25 -14 -39 6z" />
<glyph unicode="&#xd4;" horiz-adv-x="1624" d="M98 744.5q0 334.5 211 536.5t504 202t502 -202t209 -538.5t-202 -546.5t-508 -210t-511 212t-205 546.5zM291 738.5q0 -273.5 156.5 -430t365.5 -156.5t364.5 156.5t155.5 430t-158.5 428t-361.5 154.5t-362.5 -154.5t-159.5 -428zM469 1700q-14 23 4 39l318 278 q8 8 19 8t21 -10l318 -276q16 -20 4 -39l-51 -60q-16 -20 -39 -4l-254 215l-250 -215q-20 -18 -39 4z" />
<glyph unicode="&#xd5;" horiz-adv-x="1624" d="M98 744.5q0 334.5 211 536.5t504 202t502 -202t209 -538.5t-202 -546.5t-508 -210t-511 212t-205 546.5zM291 738.5q0 -273.5 156.5 -430t365.5 -156.5t364.5 156.5t155.5 430t-158.5 428t-361.5 154.5t-362.5 -154.5t-159.5 -428zM504 1620q0 221 176 221 q76 0 158 -67.5t128 -67.5t64.5 28.5t18.5 104.5q-1 25 24 25h49q25 0 25 -25q0 -231 -178 -231q-66 0 -116 31.5t-90 64.5t-80 33t-60.5 -25.5t-20.5 -91.5q0 -25 -24 -25h-50q-25 0 -24 25z" />
<glyph unicode="&#xd6;" horiz-adv-x="1624" d="M98 744.5q0 334.5 211 536.5t504 202t502 -202t209 -538.5t-202 -546.5t-508 -210t-511 212t-205 546.5zM291 738.5q0 -273.5 156.5 -430t365.5 -156.5t364.5 156.5t155.5 430t-158.5 428t-361.5 154.5t-362.5 -154.5t-159.5 -428zM563 1687.5q0 36.5 24.5 62.5t61.5 26 t62.5 -26t25.5 -62.5t-25.5 -61t-62.5 -24.5t-61.5 24.5t-24.5 61zM887 1687.5q0 36.5 24.5 62.5t61.5 26t62.5 -26t25.5 -62.5t-25.5 -61t-62.5 -24.5t-61.5 24.5t-24.5 61z" />
<glyph unicode="&#xd7;" horiz-adv-x="720" d="M78 778q0 8 10 19l82 82q8 10 17.5 10t17.5 -10l160 -164l157 157q8 10 17.5 10.5t19.5 -10.5l74 -73q10 -10 10 -19.5t-10 -19.5l-156 -156l154 -151q8 -10 8 -18.5t-8 -18.5l-82 -82q-8 -8 -16.5 -8t-18.5 8l-154 153l-157 -159q-10 -8 -19.5 -8.5t-19.5 8.5l-74 73 q-8 10 -8 20.5t8 20.5l158 158l-160 160q-10 10 -10 18z" />
<glyph unicode="&#xd8;" horiz-adv-x="1624" d="M98 743q0 336 211 538t504 202q68 0 139 -17l35 113q6 25 33 25h121q25 0 18 -25l-47 -160q186 -82 299 -257t113 -419q0 -338 -202 -547.5t-509 -209.5q-61 0 -127 16l-24 -82q-6 -24 -31 -24h-123q-25 0 -19 24l37 123q-197 84 -312.5 268.5t-115.5 431.5zM291 737 q0 -188 80 -320t207 -198l327 1084q-51 16 -110 16q-197 -6 -350.5 -160t-153.5 -422zM735 166q49 -12 103 -12q201 10 348 163.5t147 419.5q0 182 -76.5 310.5t-197.5 193.5z" />
<glyph unicode="&#xd9;" horiz-adv-x="1667" d="M98 1341v105q0 25 27 24h491q27 0 27 -24v-105q0 -25 -27 -24h-157v-772q0 -393 377 -393q193 0 282.5 101t89.5 279v785h-157q-25 0 -25 24v105q0 25 25 24h493q25 0 25 -24v-105q0 -25 -25 -24h-158v-766q0 -276 -144 -420.5t-407.5 -144.5t-408.5 144t-145 421v766 h-156q-27 0 -27 24zM612.5 1929q-0.5 10 5.5 21l66 75q10 12 19.5 12.5t19.5 -7.5l330 -291q12 -8 12 -18.5t-8 -20.5l-51 -60q-10 -12 -20.5 -12t-18.5 8l-344 275q-10 8 -10.5 18z" />
<glyph unicode="&#xda;" horiz-adv-x="1667" d="M98 1341v105q0 25 27 24h491q27 0 27 -24v-105q0 -25 -27 -24h-157v-772q0 -393 377 -393q193 0 282.5 101t89.5 279v785h-157q-25 0 -25 24v105q0 25 25 24h493q25 0 25 -24v-105q0 -25 -25 -24h-158v-766q0 -276 -144 -420.5t-407.5 -144.5t-408.5 144t-145 421v766 h-156q-27 0 -27 24zM682 1700q-18 23 4 39l330 289q8 8 18 8t21 -11l63 -77q16 -20 -2 -39l-344 -275q-25 -14 -39 6z" />
<glyph unicode="&#xdb;" horiz-adv-x="1667" d="M98 1341v105q0 25 27 24h491q27 0 27 -24v-105q0 -25 -27 -24h-157v-772q0 -393 377 -393q193 0 282.5 101t89.5 279v785h-157q-25 0 -25 24v105q0 25 25 24h493q25 0 25 -24v-105q0 -25 -25 -24h-158v-766q0 -276 -144 -420.5t-407.5 -144.5t-408.5 144t-145 421v766 h-156q-27 0 -27 24zM494 1700q-14 23 4 39l317 278q8 8 19.5 8t21.5 -10l318 -276q16 -20 4 -39l-52 -60q-16 -20 -39 -4l-253 215l-250 -215q-20 -18 -39 4z" />
<glyph unicode="&#xdc;" horiz-adv-x="1667" d="M98 1341v105q0 25 27 24h491q27 0 27 -24v-105q0 -25 -27 -24h-157v-772q0 -393 377 -393q193 0 282.5 101t89.5 279v785h-157q-25 0 -25 24v105q0 25 25 24h493q25 0 25 -24v-105q0 -25 -25 -24h-158v-766q0 -276 -144 -420.5t-407.5 -144.5t-408.5 144t-145 421v766 h-156q-27 0 -27 24zM584 1687.5q0 36.5 24.5 62.5t61.5 26t62.5 -26t25.5 -62.5t-25.5 -61t-62.5 -24.5t-61.5 24.5t-24.5 61zM907 1687.5q0 36.5 24.5 62.5t61.5 26t62.5 -26t25.5 -62.5t-25.5 -61t-62.5 -24.5t-61.5 24.5t-24.5 61z" />
<glyph unicode="&#xdd;" horiz-adv-x="1554" d="M98 1341v105q0 25 27 24h461q25 0 24 -24v-105q0 -25 -24 -24h-135l321 -569h12l320 569h-135q-25 0 -25 24v105q0 25 25 24h463q25 0 24 -24v-105q0 -25 -24 -24h-142q-100 -147 -261 -434t-163 -289v-440h158q25 0 25 -25v-104q0 -25 -25 -25h-494q-25 0 -24 25v104 q0 25 24 25h158v438l-82 141q-266 473 -342 584h-139q-27 0 -27 24zM557 1720.5q0 10.5 12 18.5l330 289q8 8 18.5 8t20.5 -11l63 -77q8 -10 8.5 -19.5t-10.5 -19.5l-344 -275q-10 -6 -20 -6t-19 12l-51 60q-8 10 -8 20.5z" />
<glyph unicode="&#xde;" horiz-adv-x="1282" d="M78 25v92q0 25 26 24h144v1188h-139q-27 0 -27 25v92q0 25 27 24h284q27 0 27 -24l-2 -250h293q221 0 356 -114.5t135 -325.5t-132 -320.5t-382 -109.5h-274v-185h192q27 0 27 -24v-92q0 -25 -27 -25h-502q-27 0 -26 25zM416 471h289q319 0 319 285q0 147 -90 216.5 t-229 69.5h-289v-571z" />
<glyph unicode="&#xdf;" horiz-adv-x="1427" d="M78 25v92q0 25 26 24h117v846q0 227 130 361.5t313.5 134.5t274.5 -80t91 -199t-92 -188l-74 -58q-92 -66 -92 -163q0 -66 59.5 -108t144.5 -68.5t170 -60.5t144.5 -103.5t59.5 -173.5q0 -131 -120 -218.5t-290 -87.5q-315 0 -420 291q-2 2 -2 4q-12 23 12 35l72 33 q27 10 35 -12q47 -104 117 -158q70 -51 172 -51t172.5 48t70.5 119.5t-58 116.5t-141 71t-166 56.5t-141.5 94t-58.5 154.5t40 150.5t87 88.5q127 74 127 160q0 66 -46 109.5t-149.5 43.5t-186.5 -91t-83 -251v-846h82q25 0 25 -24v-92q0 -25 -25 -25h-371q-27 0 -26 25z " />
<glyph unicode="&#xe0;" d="M78 507.5q0 231.5 128 373t333 141.5q135 0 220 -54.5t120 -131.5h2v145q0 27 24 27h107q25 0 24 -27v-844h115q25 0 25 -24v-88q0 -25 -25 -25h-178q-88 0 -88 86v119h-4q-96 -219 -342 -219q-209 0 -335 145t-126 376.5zM246 505q0 -169 90 -272.5t225 -103.5 t224 102.5t89 274.5t-89 272.5t-224 100.5t-225 -102.5t-90 -271.5zM319.5 1466.5q-0.5 10.5 6.5 20.5l65 76q10 12 20.5 12t18.5 -8l330 -291q12 -8 12 -18.5t-8 -20.5l-51 -59q-10 -12 -20.5 -12.5t-18.5 8.5l-344 274q-10 8 -10.5 18.5z" />
<glyph unicode="&#xe1;" d="M78 507.5q0 231.5 128 373t333 141.5q135 0 220 -54.5t120 -131.5h2v145q0 27 24 27h107q25 0 24 -27v-844h115q25 0 25 -24v-88q0 -25 -25 -25h-178q-88 0 -88 86v119h-4q-96 -219 -342 -219q-209 0 -335 145t-126 376.5zM246 505q0 -169 90 -272.5t225 -103.5 t224 102.5t89 274.5t-89 272.5t-224 100.5t-225 -102.5t-90 -271.5zM420 1257.5q0 10.5 12 18.5l330 289q8 8 18.5 8t20.5 -10l63 -78q8 -10 8 -19.5t-10 -19.5l-344 -275q-10 -6 -20.5 -6t-18.5 13l-51 59q-8 10 -8 20.5z" />
<glyph unicode="&#xe2;" d="M78 507.5q0 231.5 128 373t333 141.5q135 0 220 -54.5t120 -131.5h2v145q0 27 24 27h107q25 0 24 -27v-844h115q25 0 25 -24v-88q0 -25 -25 -25h-178q-88 0 -88 86v119h-4q-96 -219 -342 -219q-209 0 -335 145t-126 376.5zM246 505q0 -169 90 -272.5t225 -103.5 t224 102.5t89 274.5t-89 272.5t-224 100.5t-225 -102.5t-90 -271.5zM270 1256.5q0 9.5 11 19.5l317 278q8 8 19.5 8.5t21.5 -10.5l317 -276q10 -12 10.5 -21.5t-5.5 -17.5l-52 -59q-8 -12 -18 -12.5t-21 8.5l-254 215l-249 -215q-10 -8 -19.5 -8.5t-19.5 12.5l-52 59 q-6 10 -6 19.5z" />
<glyph unicode="&#xe3;" d="M78 507.5q0 231.5 128 373t333 141.5q135 0 220 -54.5t120 -131.5h2v145q0 27 24 27h107q25 0 24 -27v-844h115q25 0 25 -24v-88q0 -25 -25 -25h-178q-88 0 -88 86v119h-4q-96 -219 -342 -219q-209 0 -335 145t-126 376.5zM246 505q0 -169 90 -272.5t225 -103.5 t224 102.5t89 274.5t-89 272.5t-224 100.5t-225 -102.5t-90 -271.5zM274 1157q0 221 177 221q76 0 157.5 -67.5t127.5 -67.5t64.5 28.5t18.5 104.5q0 25 25 25h49q25 0 25 -25q0 -231 -179 -231q-66 0 -116 31.5t-89.5 64.5t-79.5 33t-60.5 -25.5t-20.5 -91.5q0 -25 -25 -24 h-49q-25 0 -25 24z" />
<glyph unicode="&#xe4;" d="M78 507.5q0 231.5 128 373t333 141.5q135 0 220 -54.5t120 -131.5h2v145q0 27 24 27h107q25 0 24 -27v-844h115q25 0 25 -24v-88q0 -25 -25 -25h-178q-88 0 -88 86v119h-4q-96 -219 -342 -219q-209 0 -335 145t-126 376.5zM246 505q0 -169 90 -272.5t225 -103.5 t224 102.5t89 274.5t-89 272.5t-224 100.5t-225 -102.5t-90 -271.5zM360 1225q0 37 25 62.5t61.5 25.5t62.5 -25.5t26 -62.5t-26 -61.5t-62.5 -24.5t-61.5 24.5t-25 61.5zM684 1225q0 37 24.5 62.5t61.5 25.5t62.5 -25.5t25.5 -62.5t-25.5 -61.5t-62.5 -24.5t-61.5 24.5 t-24.5 61.5z" />
<glyph unicode="&#xe5;" d="M78 507.5q0 231.5 128 373t333 141.5q135 0 220 -54.5t120 -131.5h2v145q0 27 24 27h107q25 0 24 -27v-844h115q25 0 25 -24v-88q0 -25 -25 -25h-178q-88 0 -88 86v119h-4q-96 -219 -342 -219q-209 0 -335 145t-126 376.5zM246 505q0 -169 90 -272.5t225 -103.5 t224 102.5t89 274.5t-89 272.5t-224 100.5t-225 -102.5t-90 -271.5zM475 1298q0 29 21 64q31 51 100 51q29 0 63 -20q51 -31 52 -103q-1 -28 -17 -55q-35 -59 -110 -59q-23 0 -58 20q-51 31 -51 102zM532 1292q0 -39 43 -53q10 -4 20.5 -4t22.5 6q33 16 33 55t-41 54 q-10 4 -20 4q-39 0 -53 -41q-4 -10 -5 -21z" />
<glyph unicode="&#xe6;" horiz-adv-x="1822" d="M78 268q0 168 146.5 247t402.5 79h172v27q0 137 -70 195t-197 58q-125 0 -180 -23.5t-78.5 -37.5t-35.5 -22q-31 -25 -45 -5l-58 72q-14 16 4 33q35 45 144 88t256 43q291 0 374 -195q61 92 159.5 142.5t209.5 50.5q219 0 338 -133t119 -361v-16q0 -29 -29 -29h-737 q8 -170 107.5 -262t224.5 -92t214 53t119 105q16 23 37 6l56 -55q12 -12 12 -21.5t-9.5 -24t-38 -45t-80.5 -69.5t-135 -65.5t-201 -26.5t-232.5 63.5t-178.5 179.5q-63 -94 -175.5 -168.5t-269.5 -74.5t-251 76.5t-94 207.5zM254 291q0 -70 58.5 -116t133 -46t126 15.5 t86 38t65.5 50.5q31 27 76 91l14 18q-14 57 -14 141h-162q-383 0 -383 -192zM977 594h592q-6 131 -80 211t-196 80t-210 -75t-106 -216z" />
<glyph unicode="&#xe7;" horiz-adv-x="1103" d="M78 512q0 233 144.5 371.5t353 138.5t315.5 -152h2l-2 113q0 27 27 27h77q25 0 25 -27v-348q0 -25 -25 -25h-94q-25 0 -24 25v35q-2 74 -84 141.5t-208 67.5t-230.5 -100.5t-104.5 -273.5t102.5 -274.5t229.5 -101.5t216 54.5t120 105.5q14 25 34 6l60 -57 q12 -10 12 -19.5t-6 -17.5q-29 -55 -129.5 -127t-249.5 -84l-14 -41q29 0 67 -10q76 -25 76 -101t-48 -116.5t-129 -40.5t-151 47q-23 14 -6 32l21 25q16 16 34 6q39 -27 91 -27q88 0 88 68q0 53 -101 53q-27 0 -36 8.5t-3 26.5l23 66q-203 10 -338 151.5t-135 374.5z" />
<glyph unicode="&#xe8;" horiz-adv-x="1101" d="M78 506.5q0 238.5 143.5 377t351 138.5t326.5 -134t119 -362v-16q0 -27 -29 -27h-737q8 -170 107.5 -262t224.5 -92t214 53.5t120 104.5q16 20 36 6l56 -55q12 -12 12 -21.5t-9 -24t-38 -45t-81 -69.5t-135 -65.5t-177 -26.5q-215 0 -359.5 141t-144.5 379.5zM256 608 h592q-6 127 -80 203t-196.5 76t-211 -69.5t-104.5 -209.5zM317.5 1466.5q-0.5 10.5 6.5 20.5l65 76q10 12 19.5 12t19.5 -8l330 -291q12 -8 12 -18.5t-8 -20.5l-51 -59q-10 -12 -20.5 -12.5t-18.5 8.5l-344 274q-10 8 -10.5 18.5z" />
<glyph unicode="&#xe9;" horiz-adv-x="1101" d="M78 506.5q0 238.5 143.5 377t351 138.5t326.5 -134t119 -362v-16q0 -27 -29 -27h-737q8 -170 107.5 -262t224.5 -92t214 53.5t120 104.5q16 20 36 6l56 -55q12 -12 12 -21.5t-9 -24t-38 -45t-81 -69.5t-135 -65.5t-177 -26.5q-215 0 -359.5 141t-144.5 379.5zM256 608 h592q-6 127 -80 203t-196.5 76t-211 -69.5t-104.5 -209.5zM418 1237q-18 23 4 39l330 289q8 8 18 8t21 -10l63 -78q16 -20 -2 -39l-344 -275q-25 -14 -39 7z" />
<glyph unicode="&#xea;" horiz-adv-x="1101" d="M78 506.5q0 238.5 143.5 377t351 138.5t326.5 -134t119 -362v-16q0 -27 -29 -27h-737q8 -170 107.5 -262t224.5 -92t214 53.5t120 104.5q16 20 36 6l56 -55q12 -12 12 -21.5t-9 -24t-38 -45t-81 -69.5t-135 -65.5t-177 -26.5q-215 0 -359.5 141t-144.5 379.5zM223 1237 q-14 23 4 39l318 278q8 8 19 8.5t22 -10.5l317 -276q16 -20 4 -39l-51 -59q-16 -20 -39 -4l-254 215l-250 -215q-20 -18 -39 4zM256 608h592q-6 127 -80 203t-196.5 76t-211 -69.5t-104.5 -209.5z" />
<glyph unicode="&#xeb;" horiz-adv-x="1101" d="M78 506.5q0 238.5 143.5 377t351 138.5t326.5 -134t119 -362v-16q0 -27 -29 -27h-737q8 -170 107.5 -262t224.5 -92t214 53.5t120 104.5q16 20 36 6l56 -55q12 -12 12 -21.5t-9 -24t-38 -45t-81 -69.5t-135 -65.5t-177 -26.5q-215 0 -359.5 141t-144.5 379.5zM256 608 h592q-6 127 -80 203t-196.5 76t-211 -69.5t-104.5 -209.5zM309 1225q0 37 24.5 62.5t61.5 25.5t62.5 -25.5t25.5 -62.5t-25.5 -61.5t-62.5 -24.5t-61.5 24.5t-24.5 61.5zM633 1225q0 37 24.5 62.5t61.5 25.5t62.5 -25.5t25.5 -62.5t-25.5 -61.5t-62.5 -24.5t-61.5 24.5 t-24.5 61.5z" />
<glyph unicode="&#xec;" horiz-adv-x="600" d="M-86 1456q0 10 6 21l66 75q10 12 20 12.5t19 -8.5l329 -290q12 -8 12.5 -18.5t-8.5 -20.5l-51 -60q-10 -12 -20.5 -12t-18.5 8l-344 275q-10 8 -10 18zM78 25v88q0 25 26 24h113v733h-113q-27 0 -26 25v88q0 25 26 25h258q25 0 25 -25v-846h109q27 0 26 -24v-88 q1 -25 -26 -25h-392q-27 0 -26 25z" />
<glyph unicode="&#xed;" horiz-adv-x="600" d="M78 25v88q0 25 26 24h113v733h-113q-27 0 -26 25v88q0 25 26 25h258q25 0 25 -25v-846h109q27 0 26 -24v-88q1 -25 -26 -25h-392q-27 0 -26 25zM190.5 1257.5q-0.5 10.5 12.5 18.5l329 289q8 8 18.5 8t20.5 -10l64 -78q8 -10 8 -19.5t-10 -19.5l-344 -275 q-10 -6 -20.5 -6t-18.5 13l-51 59q-8 10 -8.5 20.5z" />
<glyph unicode="&#xee;" horiz-adv-x="600" d="M-55 1256.5q0 9.5 10 19.5l317 278q8 8 19.5 8.5t21.5 -10.5l318 -276q10 -12 10 -21.5t-6 -17.5l-51 -59q-8 -12 -18.5 -12.5t-20.5 8.5l-254 215l-250 -215q-8 -8 -18.5 -8.5t-20.5 12.5l-51 59q-6 10 -6 19.5zM78 25v88q0 25 26 24h113v733h-113q-27 0 -26 25v88 q0 25 26 25h258q25 0 25 -25v-846h109q27 0 26 -24v-88q1 -25 -26 -25h-392q-27 0 -26 25z" />
<glyph unicode="&#xef;" horiz-adv-x="600" d="M66 1225q0 37 24.5 62.5t61 25.5t62.5 -25.5t26 -62.5t-26 -61.5t-62.5 -24.5t-61 24.5t-24.5 61.5zM78 25v88q0 25 26 24h113v733h-113q-27 0 -26 25v88q0 25 26 25h258q25 0 25 -25v-846h109q27 0 26 -24v-88q1 -25 -26 -25h-392q-27 0 -26 25zM389 1225 q0 37 24.5 62.5t61.5 25.5t62.5 -25.5t25.5 -62.5t-25.5 -61.5t-62.5 -24.5t-61.5 24.5t-24.5 61.5z" />
<glyph unicode="&#xf0;" horiz-adv-x="1251" d="M80 475q0 215 130 343t365.5 128t401.5 -104q-16 281 -164 391l-98 -100q-18 -18 -37 0l-41 43q-20 18 0 38l82 82q-67 25 -133 25q-137 0 -208 -71.5t-71 -153.5q0 -25 -24 -25h-125q-25 0 -25 25q0 174 123 280.5t328 106.5q147 0 262 -60l98 101q10 8 19.5 8t19.5 -8 l41 -43q18 -18 0 -39l-82 -82q231 -186 232 -637q0 -336 -146.5 -536.5t-402.5 -200.5t-400.5 137t-144.5 352zM264 481.5q0 -147.5 93.5 -238.5t262 -91t265 141t100.5 401q-166 113 -348 113t-277.5 -89t-95.5 -236.5z" />
<glyph unicode="&#xf1;" horiz-adv-x="1271" d="M78 25v88q0 25 26 24h113v733h-113q-27 0 -26 25v88q0 25 26 25h240q27 0 27 -25l-4 -139h6q106 178 329 178q164 0 256.5 -96.5t94.5 -259.5v-529h114q27 0 27 -24v-88q0 -25 -27 -25h-194q-88 0 -88 86v539q0 119 -57.5 184t-168.5 65q-158 0 -245 -129 q-10 -12 -27 -45v-563h109q27 0 26 -24v-88q0 -25 -26 -25h-392q-27 0 -26 25zM309 1157q0 221 176 221q76 0 158 -67.5t128 -67.5t64.5 28.5t18.5 104.5q0 25 25 25h49q25 0 24 -25q0 -231 -178 -231q-66 0 -116 31.5t-90 64.5t-79.5 33t-60 -25.5t-20.5 -91.5 q0 -25 -25 -24h-49q-25 0 -25 24z" />
<glyph unicode="&#xf2;" horiz-adv-x="1177" d="M78 506.5q0 236.5 145.5 376t365.5 139.5t364.5 -140.5t144.5 -375t-143.5 -377.5t-366.5 -143t-366.5 142t-143.5 378.5zM250 506q0 -168 98 -272.5t240.5 -104.5t241 104.5t98.5 272.5t-99.5 270.5t-238.5 102.5t-239.5 -102.5t-100.5 -270.5zM276.5 1466.5 q-0.5 10.5 6.5 20.5l65 76q10 12 19.5 12t19.5 -8l330 -291q12 -8 12 -18.5t-8 -20.5l-51 -59q-10 -12 -20.5 -12.5t-18.5 8.5l-344 274q-10 8 -10.5 18.5z" />
<glyph unicode="&#xf3;" horiz-adv-x="1177" d="M78 506.5q0 236.5 145.5 376t365.5 139.5t364.5 -140.5t144.5 -375t-143.5 -377.5t-366.5 -143t-366.5 142t-143.5 378.5zM250 506q0 -168 98 -272.5t240.5 -104.5t241 104.5t98.5 272.5t-99.5 270.5t-238.5 102.5t-239.5 -102.5t-100.5 -270.5zM446 1237q-18 23 5 39 l329 289q8 8 18.5 8t20.5 -10l64 -78q16 -20 -2 -39l-344 -275q-25 -14 -39 7z" />
<glyph unicode="&#xf4;" horiz-adv-x="1177" d="M78 506.5q0 236.5 145.5 376t365.5 139.5t364.5 -140.5t144.5 -375t-143.5 -377.5t-366.5 -143t-366.5 142t-143.5 378.5zM250 506q0 -168 98 -272.5t240.5 -104.5t241 104.5t98.5 272.5t-99.5 270.5t-238.5 102.5t-239.5 -102.5t-100.5 -270.5zM258 1237q-14 23 4 39 l318 278q8 8 19 8.5t22 -10.5l317 -276q16 -20 4 -39l-51 -59q-16 -20 -39 -4l-254 215l-250 -215q-20 -18 -39 4z" />
<glyph unicode="&#xf5;" horiz-adv-x="1177" d="M78 506.5q0 236.5 145.5 376t365.5 139.5t364.5 -140.5t144.5 -375t-143.5 -377.5t-366.5 -143t-366.5 142t-143.5 378.5zM250 506q0 -168 98 -272.5t240.5 -104.5t241 104.5t98.5 272.5t-99.5 270.5t-238.5 102.5t-239.5 -102.5t-100.5 -270.5zM283 1157q0 221 176 221 q76 0 157.5 -67.5t128 -67.5t64.5 28.5t18 104.5q0 25 25 25h49q25 0 25 -25q0 -231 -178 -231q-66 0 -116 31.5t-90 64.5t-80 33t-60.5 -25.5t-20.5 -91.5q0 -25 -25 -24h-49q-25 0 -24 24z" />
<glyph unicode="&#xf6;" horiz-adv-x="1177" d="M78 506.5q0 236.5 145.5 376t365.5 139.5t364.5 -140.5t144.5 -375t-143.5 -377.5t-366.5 -143t-366.5 142t-143.5 378.5zM250 506q0 -168 98 -272.5t240.5 -104.5t241 104.5t98.5 272.5t-99.5 270.5t-238.5 102.5t-239.5 -102.5t-100.5 -270.5zM344 1225q0 37 24.5 62.5 t61.5 25.5t62.5 -25.5t25.5 -62.5t-25.5 -61.5t-62.5 -24.5t-61.5 24.5t-24.5 61.5zM668 1225q0 37 24.5 62.5t61.5 25.5t62.5 -25.5t25.5 -62.5t-25.5 -61.5t-62.5 -24.5t-61.5 24.5t-24.5 61.5z" />
<glyph unicode="&#xf7;" horiz-adv-x="847" d="M78 479v105q0 27 28 26h637q27 0 27 -26v-105q0 -26 -27 -26h-637q-29 0 -28 26zM340 283.5q0 35.5 25.5 60.5t60.5 25t59.5 -25t24.5 -60.5t-24.5 -60t-59.5 -24.5t-60.5 24.5t-25.5 60zM340 792.5q0 34.5 25.5 59.5t60.5 25t59.5 -25t24.5 -59.5t-24.5 -60t-59.5 -25.5 t-60.5 25.5t-25.5 60z" />
<glyph unicode="&#xf8;" horiz-adv-x="1177" d="M78 508q0 236 145.5 375t366.5 139q98 0 186 -35l15 31q10 27 34 26h86q29 0 19 -26l-43 -82q211 -141 211 -428q0 -236 -143.5 -379t-366.5 -143q-84 0 -168 26l-25 -47q-13 -24 -33 -24h-86q-29 0 -18 24l49 96q-106 66 -167.5 181.5t-61.5 265.5zM250 494.5 q0 -179.5 131 -283.5l326 641q-60 27 -117 27q-139 0 -239.5 -102.5t-100.5 -282zM489 150q44 -21 103 -21q141 0 238.5 104.5t97.5 274.5t-117 276z" />
<glyph unicode="&#xf9;" horiz-adv-x="1245" d="M51 895v88q0 25 25 25h196q88 0 88 -86v-539q0 -119 57.5 -184.5t168.5 -65.5q150 0 235 111q37 47 37 63v563h-110q-25 0 -25 25v88q0 25 25 25h253q25 0 25 -25v-846h115q27 0 26 -24v-88q1 -25 -26 -25h-178q-88 0 -89 86v76h-6q-84 -176 -319 -176q-164 0 -259 97 t-97 259v528h-117q-25 0 -25 25zM285 1466.5q0 10.5 6 20.5l65 76q10 12 19.5 12t19.5 -8l330 -291q12 -8 12 -18.5t-8 -20.5l-51 -59q-10 -12 -20.5 -12.5t-18.5 8.5l-344 274q-10 8 -10 18.5z" />
<glyph unicode="&#xfa;" horiz-adv-x="1245" d="M51 895v88q0 25 25 25h196q88 0 88 -86v-539q0 -119 57.5 -184.5t168.5 -65.5q150 0 235 111q37 47 37 63v563h-110q-25 0 -25 25v88q0 25 25 25h253q25 0 25 -25v-846h115q27 0 26 -24v-88q1 -25 -26 -25h-178q-88 0 -89 86v76h-6q-84 -176 -319 -176q-164 0 -259 97 t-97 259v528h-117q-25 0 -25 25zM377 1237q-18 23 4 39l330 289q8 8 18 8t21 -10l63 -78q16 -20 -2 -39l-344 -275q-25 -14 -39 7z" />
<glyph unicode="&#xfb;" horiz-adv-x="1245" d="M51 895v88q0 25 25 25h196q88 0 88 -86v-539q0 -119 57.5 -184.5t168.5 -65.5q150 0 235 111q37 47 37 63v563h-110q-25 0 -25 25v88q0 25 25 25h253q25 0 25 -25v-846h115q27 0 26 -24v-88q1 -25 -26 -25h-178q-88 0 -89 86v76h-6q-84 -176 -319 -176q-164 0 -259 97 t-97 259v528h-117q-25 0 -25 25zM242 1237q-14 23 4 39l317 278q8 8 19.5 8.5t21.5 -10.5l318 -276q16 -20 4 -39l-52 -59q-16 -20 -38 -4l-254 215l-250 -215q-20 -18 -39 4z" />
<glyph unicode="&#xfc;" horiz-adv-x="1245" d="M51 895v88q0 25 25 25h196q88 0 88 -86v-539q0 -119 57.5 -184.5t168.5 -65.5q150 0 235 111q37 47 37 63v563h-110q-25 0 -25 25v88q0 25 25 25h253q25 0 25 -25v-846h115q27 0 26 -24v-88q1 -25 -26 -25h-178q-88 0 -89 86v76h-6q-84 -176 -319 -176q-164 0 -259 97 t-97 259v528h-117q-25 0 -25 25zM338 1225q0 37 24.5 62.5t61.5 25.5t62.5 -25.5t25.5 -62.5t-25.5 -61.5t-62.5 -24.5t-61.5 24.5t-24.5 61.5zM662 1225q0 37 24.5 62.5t61 25.5t62.5 -25.5t26 -62.5t-26 -61.5t-62.5 -24.5t-61 24.5t-24.5 61.5z" />
<glyph unicode="&#xfd;" horiz-adv-x="1140" d="M51 895v88q0 25 25 25h196q88 0 88 -86v-539q0 -119 57.5 -184.5t168.5 -65.5q150 0 235 111q37 47 37 63v563h-110q-25 0 -25 25v88q0 25 25 25h253q25 0 25 -25l2 -1022q0 -219 -135 -329.5t-354 -110.5q-119 0 -175.5 18.5t-87 30.5t-55.5 29q-111 68 -84 94l51 76 q16 18 45 -7q109 -94 281 -94q360 0 360 293v201h-6q-84 -176 -319 -176q-164 0 -259 97t-97 259v528h-117q-25 0 -25 25zM369 1257.5q0 10.5 12 18.5l330 289q8 8 18 8t21 -10l63 -78q8 -10 8 -19.5t-10 -19.5l-344 -275q-10 -6 -20.5 -6t-18.5 13l-51 59q-8 10 -8 20.5z " />
<glyph unicode="&#xfe;" d="M78 -350q0 27 26 26h115v1655h-110q-27 0 -27 25v88q0 25 27 24h253q27 0 27 -24v-610q96 188 314.5 188t345.5 -140.5t127 -373t-125 -377.5t-334 -145q-127 0 -212 58t-122 142h-4q4 -45 4 -73v-437h133q27 0 27 -26v-86q0 -27 -27 -27h-412q-27 0 -26 27v86zM379 506 q0 -172 89 -274.5t225 -102.5t225.5 103.5t89.5 272.5t-89.5 271.5t-225.5 102.5t-225 -100.5t-89 -272.5z" />
<glyph unicode="&#xff;" horiz-adv-x="1140" d="M51 895v88q0 25 25 25h196q88 0 88 -86v-539q0 -119 57.5 -184.5t168.5 -65.5q150 0 235 111q37 47 37 63v563h-110q-25 0 -25 25v88q0 25 25 25h253q25 0 25 -25l2 -1022q0 -219 -135 -329.5t-354 -110.5q-119 0 -175.5 18.5t-87 30.5t-55.5 29q-111 68 -84 94l51 76 q16 18 45 -7q109 -94 281 -94q360 0 360 293v201h-6q-84 -176 -319 -176q-164 0 -259 97t-97 259v528h-117q-25 0 -25 25zM338 1225q0 37 24.5 62.5t61.5 25.5t62.5 -25.5t25.5 -62.5t-25.5 -61.5t-62.5 -24.5t-61.5 24.5t-24.5 61.5zM662 1225q0 37 24.5 62.5t61 25.5 t62.5 -25.5t26 -62.5t-26 -61.5t-62.5 -24.5t-61 24.5t-24.5 61.5z" />
<glyph unicode="&#x152;" horiz-adv-x="1857" d="M98 745.5q0 331.5 207 527t498 197.5h932q25 0 24 -24v-330q0 -27 -24 -26h-113q-25 0 -25 26v201h-616v-508h518q25 0 25 -25v-104q0 -25 -25 -25h-518v-501h616v200q0 25 25 25h113q25 0 24 -25v-329q1 -25 -24 -25h-930q-303 0 -505 207t-202 538.5zM291 737.5 q0 -270.5 151.5 -421t360.5 -154.5v1147q-203 -6 -357.5 -153.5t-154.5 -418z" />
<glyph unicode="&#x153;" horiz-adv-x="1953" d="M78 506.5q0 236.5 145.5 376t366.5 139.5q137 0 249.5 -62.5t174.5 -175.5q59 113 166.5 175.5t232.5 62.5q219 0 338 -134t119 -360v-16q0 -29 -29 -29h-737q8 -170 107.5 -262t224.5 -92t214 53.5t119 104.5q16 20 37 6l56 -55q12 -10 12 -19.5t-9.5 -25t-39 -46 t-81.5 -69.5t-134 -65.5t-198 -26.5t-226.5 63.5t-169.5 179.5q-61 -117 -174 -180t-254 -63q-223 0 -366.5 142t-143.5 378.5zM250 506q0 -168 98 -272.5t240.5 -104.5t241 103.5t98.5 272.5t-99.5 271.5t-238.5 102.5t-239.5 -102.5t-100.5 -270.5zM1108 606h592 q-6 129 -80 205t-197 76t-210 -71t-105 -210z" />
<glyph unicode="&#x178;" horiz-adv-x="1554" d="M98 1341v105q0 25 27 24h461q25 0 24 -24v-105q0 -25 -24 -24h-135l321 -569h12l320 569h-135q-25 0 -25 24v105q0 25 25 24h463q25 0 24 -24v-105q0 -25 -24 -24h-142q-100 -147 -261 -434t-163 -289v-440h158q25 0 25 -25v-104q0 -25 -25 -25h-494q-25 0 -24 25v104 q0 25 24 25h158v438l-82 141q-266 473 -342 584h-139q-27 0 -27 24zM526 1687.5q0 36.5 24.5 62.5t61.5 26t62.5 -26t25.5 -62.5t-25.5 -61t-62.5 -24.5t-61.5 24.5t-24.5 61zM850 1687.5q0 36.5 24.5 62.5t61.5 26t62.5 -26t25.5 -62.5t-25.5 -61t-62.5 -24.5t-61.5 24.5 t-24.5 61z" />
<glyph unicode="&#x2c6;" horiz-adv-x="839" d="M72 1256.5q0 9.5 10 19.5l317 278q8 8 19.5 8.5t21.5 -10.5l318 -276q10 -12 10 -21.5t-6 -17.5l-51 -59q-8 -12 -18.5 -12.5t-20.5 8.5l-254 215l-250 -215q-8 -8 -18.5 -8.5t-20.5 12.5l-51 59q-6 10 -6 19.5z" />
<glyph unicode="&#x2dc;" horiz-adv-x="786" d="M72 1157q0 221 176 221q76 0 157.5 -67.5t128 -67.5t64.5 28.5t18 104.5q0 25 25 25h49q25 0 25 -25q0 -231 -178 -231q-66 0 -116 31.5t-90 64.5t-80 33t-60.5 -25.5t-20.5 -91.5q0 -25 -25 -24h-49q-25 0 -24 24z" />
<glyph unicode="&#x2000;" horiz-adv-x="1018" />
<glyph unicode="&#x2001;" horiz-adv-x="2037" />
<glyph unicode="&#x2002;" horiz-adv-x="1018" />
<glyph unicode="&#x2003;" horiz-adv-x="2037" />
<glyph unicode="&#x2004;" horiz-adv-x="679" />
<glyph unicode="&#x2005;" horiz-adv-x="509" />
<glyph unicode="&#x2006;" horiz-adv-x="339" />
<glyph unicode="&#x2007;" horiz-adv-x="339" />
<glyph unicode="&#x2008;" horiz-adv-x="254" />
<glyph unicode="&#x2009;" horiz-adv-x="407" />
<glyph unicode="&#x200a;" horiz-adv-x="113" />
<glyph unicode="&#x2010;" horiz-adv-x="847" d="M78 481v105q0 27 28 26h637q27 0 27 -26v-105q0 -26 -27 -26h-637q-29 0 -28 26z" />
<glyph unicode="&#x2011;" horiz-adv-x="847" d="M78 481v105q0 27 28 26h637q27 0 27 -26v-105q0 -26 -27 -26h-637q-29 0 -28 26z" />
<glyph unicode="&#x2012;" horiz-adv-x="847" d="M78 481v105q0 27 28 26h637q27 0 27 -26v-105q0 -26 -27 -26h-637q-29 0 -28 26z" />
<glyph unicode="&#x2013;" horiz-adv-x="1134" d="M78 481v105q0 27 28 26h924q27 0 27 -26v-105q0 -26 -27 -26h-924q-29 0 -28 26z" />
<glyph unicode="&#x2014;" horiz-adv-x="1800" d="M78 481v105q0 27 28 26h1590q27 0 26 -26v-105q1 -26 -26 -26h-1590q-29 0 -28 26z" />
<glyph unicode="&#x2018;" horiz-adv-x="366" d="M78 1387.5q0 93.5 46 147.5t116 54q14 0 14 -12v-35q0 -12 -23.5 -12t-49 -27.5t-25.5 -81.5l4 -24q12 10 45 10t58.5 -25.5t25.5 -67.5t-29 -69.5t-76 -27.5t-76.5 38.5t-29.5 132z" />
<glyph unicode="&#x2019;" horiz-adv-x="366" d="M78 1425q0 41 27.5 69t74.5 28t78 -39t31 -132.5t-46 -147.5t-118 -54q-12 0 -12 12v35q0 12 22.5 12t48 28t25.5 81l-4 24q-10 -10 -43 -10t-58.5 26.5t-25.5 67.5z" />
<glyph unicode="&#x201a;" horiz-adv-x="366" d="M78 80q0 41 27.5 68.5t74.5 27.5t78 -39t31 -132t-46 -146.5t-118 -53.5q-12 1 -12 11v34q0 12 22.5 12.5t48 28t25.5 80.5l-4 25q-10 -10 -43 -10t-58.5 26.5t-25.5 67.5z" />
<glyph unicode="&#x201c;" horiz-adv-x="698" d="M78 1387.5q0 93.5 46 147.5t116 54q14 0 14 -12v-35q0 -12 -23.5 -12t-49 -27.5t-25.5 -81.5l4 -24q12 10 45 10t58.5 -25.5t25.5 -67.5t-29 -69.5t-76 -27.5t-76.5 38.5t-29.5 132zM412 1387.5q0 93.5 45 147.5t116 54q15 0 15 -12v-35q0 -12 -23.5 -12t-49.5 -27.5 t-26 -81.5l5 -24q10 10 42.5 10t58.5 -26.5t26 -67.5t-28 -68.5t-75 -27.5t-76.5 38.5t-29.5 132z" />
<glyph unicode="&#x201d;" horiz-adv-x="698" d="M78 1425q0 41 27.5 69t74.5 28t78 -39t31 -132.5t-46 -147.5t-118 -54q-12 0 -12 12v35q0 12 22.5 12t48 28t25.5 81l-4 24q-10 -10 -43 -10t-58.5 26.5t-25.5 67.5zM412 1425q0 41 27.5 69t74.5 28t77 -39t30 -132.5t-45.5 -147.5t-116.5 -54q-15 0 -15 12v35 q0 12 24 12t49.5 28t25.5 81l-4 24q-10 -10 -43 -10t-58.5 26.5t-25.5 67.5z" />
<glyph unicode="&#x201e;" horiz-adv-x="675" d="M78 80q0 41 27.5 68.5t74.5 27.5t78 -39t31 -132t-46 -146.5t-118 -53.5q-12 1 -12 11v34q0 12 22.5 12.5t48 28t25.5 80.5l-4 25q-10 -10 -43 -10t-58.5 26.5t-25.5 67.5zM387 80q0 41 27.5 68.5t75 27.5t77 -39t29.5 -132t-45 -146.5t-117 -53.5q-14 1 -14 11v34 q0 12 23.5 12.5t49 28t25.5 80.5l-4 25q-10 -10 -43 -10t-58.5 26.5t-25.5 67.5z" />
<glyph unicode="&#x2022;" horiz-adv-x="538" d="M78 685q0 91 50 145.5t138 54.5t141.5 -55.5t53.5 -144.5t-52.5 -142.5t-141.5 -53.5t-139 52.5t-50 143.5z" />
<glyph unicode="&#x2026;" horiz-adv-x="813" d="M57 82q0 41 29 68.5t70 27.5t68.5 -27.5t27.5 -68.5t-27.5 -68.5t-68.5 -27.5t-70 27.5t-29 68.5zM311 82q0 41 29 68.5t69 27.5t68.5 -27.5t28.5 -68.5t-28.5 -68.5t-69.5 -27.5t-69 27.5t-28 68.5zM561 82q0 41 28.5 68.5t68.5 27.5t69 -27.5t29 -68.5t-29 -68.5 t-70 -27.5t-68.5 27.5t-27.5 68.5z" />
<glyph unicode="&#x202f;" horiz-adv-x="407" />
<glyph unicode="&#x205f;" horiz-adv-x="509" />
<glyph unicode="&#x20ac;" horiz-adv-x="1466" d="M78 530v76q0 25 26 25h140q-6 43 -6 94t4 96h-138q-27 0 -26 25v74q0 27 26 26h156q55 250 238.5 393.5t403.5 143.5t425 -129q18 -14 4 -35l-69 -86q-16 -20 -35 -4q-119 86 -287 86t-301 -95.5t-180 -273.5h540q27 0 27 -26v-74q0 -25 -27 -25h-567q-4 -25 -4 -83 t6 -107h447q27 0 26 -25v-76q0 -25 -26 -24h-408q53 -170 182 -259t283 -89q203 0 332 90q23 14 35 0l73 -88q11 -13 11 -21t-11 -16q-170 -137 -428 -137t-438 139t-244 381h-164q-27 0 -26 24z" />
<glyph unicode="&#x2122;" horiz-adv-x="2119" d="M78 1249v207q0 14 18 14h770q16 0 17 -14v-207q0 -16 -17 -16h-80q-16 0 -16 16v111h-221v-660h92q16 0 16 -16v-78q0 -16 -16 -16h-317q-16 0 -17 16v78q0 16 17 16h94v660h-228v-111q0 -16 -16 -16h-78q-18 0 -18 16zM1008 604v82q0 14 14 14h90v660h-90q-14 0 -14 14 v82q0 14 14 14h211q43 0 59 -40l178 -439l52 -147h4q29 90 51 147l176 439q16 41 59 40h213q16 0 17 -14v-82q0 -14 -17 -14h-90v-660h90q16 0 17 -14v-82q-1 -14 -17 -14h-296q-14 0 -15 14v82q0 14 15 14h79v588h-2l-229 -573q-14 -39 -54 -39t-53 39l-229 573h-4v-588h80 q14 0 14 -14v-82q0 -14 -14 -14h-295q-14 0 -14 14z" />
<glyph unicode="&#x25fc;" horiz-adv-x="1003" d="M0 0v1004h1004v-1004h-1004z" />
<glyph d="M78 507.5q0 231.5 128 373t333 141.5q135 0 220 -54.5t120 -131.5h2v145q0 27 24 27h107q25 0 24 -27v-844h115q25 0 25 -24v-88q0 -25 -25 -25h-178q-88 0 -88 86v119h-4q-96 -219 -342 -219q-209 0 -335 145t-126 376.5zM246 505q0 -169 90 -272.5t225 -103.5 t224 102.5t89 274.5t-89 272.5t-224 100.5t-225 -102.5t-90 -271.5zM319.5 1466.5q-0.5 10.5 6.5 20.5l65 76q10 12 20.5 12t18.5 -8l330 -291q12 -8 12 -18.5t-8 -20.5l-51 -59q-10 -12 -20.5 -12.5t-18.5 8.5l-344 274q-10 8 -10.5 18.5z" />
<glyph d="M78 507.5q0 231.5 128 373t333 141.5q135 0 220 -54.5t120 -131.5h2v145q0 27 24 27h107q25 0 24 -27v-844h115q25 0 25 -24v-88q0 -25 -25 -25h-178q-88 0 -88 86v119h-4q-96 -219 -342 -219q-209 0 -335 145t-126 376.5zM246 505q0 -169 90 -272.5t225 -103.5 t224 102.5t89 274.5t-89 272.5t-224 100.5t-225 -102.5t-90 -271.5z" />
<glyph horiz-adv-x="1140" d="M51 895v88q0 25 25 25h196q88 0 88 -86v-539q0 -119 57.5 -184.5t168.5 -65.5q150 0 235 111q37 47 37 63v563h-110q-25 0 -25 25v88q0 25 25 25h253q25 0 25 -25l2 -1022q0 -219 -135 -329.5t-354 -110.5q-119 0 -175.5 18.5t-87 30.5t-55.5 29q-111 68 -84 94l51 76 q16 18 45 -7q109 -94 281 -94q360 0 360 293v201h-6q-84 -176 -319 -176q-164 0 -259 97t-97 259v528h-117q-25 0 -25 25z" />
<glyph d="M78 507.5q0 231.5 128 373t333 141.5q135 0 220 -54.5t120 -131.5h2v145q0 27 24 27h107q25 0 24 -27v-844h115q25 0 25 -24v-88q0 -25 -25 -25h-178q-88 0 -88 86v119h-4q-96 -219 -342 -219q-209 0 -335 145t-126 376.5zM246 505q0 -169 90 -272.5t225 -103.5 t224 102.5t89 274.5t-89 272.5t-224 100.5t-225 -102.5t-90 -271.5zM274 1157q0 221 177 221q76 0 157.5 -67.5t127.5 -67.5t64.5 28.5t18.5 104.5q0 25 25 25h49q25 0 25 -25q0 -231 -179 -231q-66 0 -116 31.5t-89.5 64.5t-79.5 33t-60.5 -25.5t-20.5 -91.5q0 -25 -25 -24 h-49q-25 0 -25 24z" />
<glyph horiz-adv-x="1140" d="M51 895v88q0 25 25 25h196q88 0 88 -86v-539q0 -119 57.5 -184.5t168.5 -65.5q150 0 235 111q37 47 37 63v563h-110q-25 0 -25 25v88q0 25 25 25h253q25 0 25 -25l2 -1022q0 -219 -135 -329.5t-354 -110.5q-119 0 -175.5 18.5t-87 30.5t-55.5 29q-111 68 -84 94l51 76 q16 18 45 -7q109 -94 281 -94q360 0 360 293v201h-6q-84 -176 -319 -176q-164 0 -259 97t-97 259v528h-117q-25 0 -25 25zM369 1257.5q0 10.5 12 18.5l330 289q8 8 18 8t21 -10l63 -78q8 -10 8 -19.5t-10 -19.5l-344 -275q-10 -6 -20.5 -6t-18.5 13l-51 59q-8 10 -8 20.5z " />
<glyph d="M78 507.5q0 231.5 128 373t333 141.5q135 0 220 -54.5t120 -131.5h2v145q0 27 24 27h107q25 0 24 -27v-844h115q25 0 25 -24v-88q0 -25 -25 -25h-178q-88 0 -88 86v119h-4q-96 -219 -342 -219q-209 0 -335 145t-126 376.5zM246 505q0 -169 90 -272.5t225 -103.5 t224 102.5t89 274.5t-89 272.5t-224 100.5t-225 -102.5t-90 -271.5zM420 1257.5q0 10.5 12 18.5l330 289q8 8 18.5 8t20.5 -10l63 -78q8 -10 8 -19.5t-10 -19.5l-344 -275q-10 -6 -20.5 -6t-18.5 13l-51 59q-8 10 -8 20.5z" />
<glyph horiz-adv-x="1140" d="M51 895v88q0 25 25 25h196q88 0 88 -86v-539q0 -119 57.5 -184.5t168.5 -65.5q150 0 235 111q37 47 37 63v563h-110q-25 0 -25 25v88q0 25 25 25h253q25 0 25 -25l2 -1022q0 -219 -135 -329.5t-354 -110.5q-119 0 -175.5 18.5t-87 30.5t-55.5 29q-111 68 -84 94l51 76 q16 18 45 -7q109 -94 281 -94q360 0 360 293v201h-6q-84 -176 -319 -176q-164 0 -259 97t-97 259v528h-117q-25 0 -25 25zM338 1225q0 37 24.5 62.5t61.5 25.5t62.5 -25.5t25.5 -62.5t-25.5 -61.5t-62.5 -24.5t-61.5 24.5t-24.5 61.5zM662 1225q0 37 24.5 62.5t61 25.5 t62.5 -25.5t26 -62.5t-26 -61.5t-62.5 -24.5t-61 24.5t-24.5 61.5z" />
<glyph d="M78 507.5q0 231.5 128 373t333 141.5q135 0 220 -54.5t120 -131.5h2v145q0 27 24 27h107q25 0 24 -27v-844h115q25 0 25 -24v-88q0 -25 -25 -25h-178q-88 0 -88 86v119h-4q-96 -219 -342 -219q-209 0 -335 145t-126 376.5zM246 505q0 -169 90 -272.5t225 -103.5 t224 102.5t89 274.5t-89 272.5t-224 100.5t-225 -102.5t-90 -271.5zM360 1225q0 37 25 62.5t61.5 25.5t62.5 -25.5t26 -62.5t-26 -61.5t-62.5 -24.5t-61.5 24.5t-25 61.5zM684 1225q0 37 24.5 62.5t61.5 25.5t62.5 -25.5t25.5 -62.5t-25.5 -61.5t-62.5 -24.5t-61.5 24.5 t-24.5 61.5z" />
<glyph d="M78 507.5q0 231.5 128 373t333 141.5q135 0 220 -54.5t120 -131.5h2v145q0 27 24 27h107q25 0 24 -27v-844h115q25 0 25 -24v-88q0 -25 -25 -25h-178q-88 0 -88 86v119h-4q-96 -219 -342 -219q-209 0 -335 145t-126 376.5zM246 505q0 -169 90 -272.5t225 -103.5 t224 102.5t89 274.5t-89 272.5t-224 100.5t-225 -102.5t-90 -271.5zM475 1298q0 29 21 64q31 51 100 51q29 0 63 -20q51 -31 52 -103q-1 -28 -17 -55q-35 -59 -110 -59q-23 0 -58 20q-51 31 -51 102zM532 1292q0 -39 43 -53q10 -4 20.5 -4t22.5 6q33 16 33 55t-41 54 q-10 4 -20 4q-39 0 -53 -41q-4 -10 -5 -21z" />
<glyph d="M78 507.5q0 231.5 128 373t333 141.5q135 0 220 -54.5t120 -131.5h2v145q0 27 24 27h107q25 0 24 -27v-844h115q25 0 25 -24v-88q0 -25 -25 -25h-178q-88 0 -88 86v119h-4q-96 -219 -342 -219q-209 0 -335 145t-126 376.5zM246 505q0 -169 90 -272.5t225 -103.5 t224 102.5t89 274.5t-89 272.5t-224 100.5t-225 -102.5t-90 -271.5zM270 1256.5q0 9.5 11 19.5l317 278q8 8 19.5 8.5t21.5 -10.5l317 -276q10 -12 10.5 -21.5t-5.5 -17.5l-52 -59q-8 -12 -18 -12.5t-21 8.5l-254 215l-249 -215q-10 -8 -19.5 -8.5t-19.5 12.5l-52 59 q-6 10 -6 19.5z" />
<glyph horiz-adv-x="1296" d="M78 25l2 88q0 25 24 24h113l2 1196h-115q-27 0 -24 25l-2 88q4 25 26 24h258q25 0 25 -24v-660q117 236 354 236q172 0 268.5 -95.5t96.5 -231.5t-104.5 -216t-231.5 -92l309 -250h88q27 0 27 -24l-2 -88q0 -25 -25 -25h-110q-53 0 -113 63l-369 314q-12 8 -12 20l2 56 q0 24 25 24h76q98 0 185 59.5t87 146.5t-60.5 145.5t-155.5 58.5t-177 -72q-139 -125 -156 -313l-2 -365h109q27 0 26 -24v-88q0 -25 -26 -25h-392q-27 0 -26 25z" />
</font>
</defs>
</svg>
